<svg width="30" height="30" viewBox="0 0 30 30" fill="none" xmlns="http://www.w3.org/2000/svg">
<path id="Vector" d="M28.5327 8.52956C30.1323 11.8751 30.4359 15.6946 29.3851 19.2508C28.3342 22.8071 26.0032 25.848 22.8421 27.7867C19.681 29.7254 15.9138 30.4245 12.2675 29.749C8.6213 29.0735 5.35453 27.0713 3.09772 24.1288C0.840908 21.1863 -0.245965 17.5122 0.0468674 13.8155C0.3397 10.1188 1.99148 6.66158 4.68341 4.11112C7.37534 1.56067 10.9166 0.0977528 14.6237 0.00472499C18.3308 -0.0883029 21.941 1.19515 24.7575 3.60738L28.024 0.33937C28.2403 0.12307 28.5337 0.00155368 28.8396 0.00155368C29.1455 0.00155368 29.4388 0.12307 29.6551 0.33937C29.8714 0.55567 29.993 0.849036 29.993 1.15493C29.993 1.46083 29.8714 1.75419 29.6551 1.97049L15.8223 15.8033C15.606 16.0196 15.3126 16.1411 15.0068 16.1411C14.7009 16.1411 14.4075 16.0196 14.1912 15.8033C13.9749 15.587 13.8534 15.2937 13.8534 14.9878C13.8534 14.6819 13.9749 14.3885 14.1912 14.1722L18.1854 10.178C17.1029 9.46206 15.8105 9.13243 14.5174 9.24245C13.2242 9.35247 12.0061 9.8957 11.0601 10.7842C10.1141 11.6727 9.49567 12.8545 9.30491 14.1382C9.11414 15.4219 9.3622 16.7324 10.0089 17.8576C10.6557 18.9828 11.6632 19.8568 12.8685 20.3381C14.0738 20.8194 15.4062 20.8798 16.6501 20.5096C17.894 20.1394 18.9765 19.3602 19.7225 18.2982C20.4684 17.2362 20.8341 15.9535 20.7603 14.6578C20.7518 14.5064 20.7732 14.3548 20.8233 14.2117C20.8733 14.0686 20.9511 13.9368 21.0521 13.8237C21.1531 13.7106 21.2754 13.6186 21.412 13.5528C21.5486 13.487 21.6969 13.4487 21.8482 13.4402C22.154 13.423 22.454 13.528 22.6823 13.732C22.7954 13.833 22.8875 13.9553 22.9533 14.0919C23.0191 14.2285 23.0573 14.3767 23.0658 14.5281C23.1709 16.3621 22.6471 18.177 21.5809 19.673C20.5148 21.1689 18.9701 22.2563 17.2022 22.7554C15.4343 23.2545 13.5491 23.1354 11.858 22.4179C10.167 21.7003 8.77138 20.4273 7.90188 18.8091C7.03238 17.1909 6.74104 15.3245 7.07601 13.5183C7.41098 11.7122 8.35221 10.0743 9.74413 8.87556C11.1361 7.67679 12.8953 6.98883 14.7312 6.9254C16.5671 6.86196 18.3697 7.42684 19.841 8.52668L23.1191 5.24858C20.7168 3.25406 17.6623 2.21741 14.5423 2.33775C11.4222 2.45808 8.45664 3.72692 6.2151 5.90055C3.97356 8.07419 2.61413 10.9993 2.3979 14.1142C2.18167 17.2291 3.12389 20.314 5.04359 22.7765C6.9633 25.239 9.72512 26.9055 12.7986 27.4557C15.8721 28.006 19.0406 27.4014 21.6954 25.7579C24.3502 24.1144 26.3043 21.548 27.1822 18.5516C28.0602 15.5553 27.8001 12.3401 26.452 9.52379C26.3201 9.24788 26.3033 8.93089 26.4052 8.64256C26.507 8.35423 26.7193 8.11818 26.9952 7.98633C27.2711 7.85449 27.5881 7.83765 27.8764 7.93953C28.1648 8.0414 28.4008 8.25364 28.5327 8.52956Z" fill="black"/>
</svg>
