<svg width="24" height="30" viewBox="0 0 24 30" fill="none" xmlns="http://www.w3.org/2000/svg">
<path d="M5.83333 19.1665C5.61232 19.1665 5.40036 19.0787 5.24408 18.9225C5.0878 18.7662 5 18.5542 5 18.3332C5 18.1122 5.0878 17.9002 5.24408 17.744C5.40036 17.5877 5.61232 17.4999 5.83333 17.4999H17.5C17.721 17.4999 17.933 17.5877 18.0893 17.744C18.2455 17.9002 18.3333 18.1122 18.3333 18.3332C18.3333 18.5542 18.2455 18.7662 18.0893 18.9225C17.933 19.0787 17.721 19.1665 17.5 19.1665H5.83333ZM5.83333 23.3332C5.61232 23.3332 5.40036 23.2454 5.24408 23.0891C5.0878 22.9329 5 22.7209 5 22.4999C5 22.2789 5.0878 22.0669 5.24408 21.9106C5.40036 21.7543 5.61232 21.6665 5.83333 21.6665H17.5C17.721 21.6665 17.933 21.7543 18.0893 21.9106C18.2455 22.0669 18.3333 22.2789 18.3333 22.4999C18.3333 22.7209 18.2455 22.9329 18.0893 23.0891C17.933 23.2454 17.721 23.3332 17.5 23.3332H5.83333Z" fill="#555555"/>
<path fill-rule="evenodd" clip-rule="evenodd" d="M13.6417 2.32903e-07H2.5C1.83696 2.32903e-07 1.20107 0.263392 0.732233 0.732233C0.263392 1.20107 0 1.83696 0 2.5V27.5C0 28.163 0.263392 28.7989 0.732233 29.2678C1.20107 29.7366 1.83696 30 2.5 30H20.8333C21.4964 30 22.1323 29.7366 22.6011 29.2678C23.0699 28.7989 23.3333 28.163 23.3333 27.5V10.3367C23.3332 9.71079 23.0983 9.10773 22.675 8.64667L15.485 0.81C15.2507 0.554576 14.9658 0.350667 14.6485 0.211224C14.3311 0.0717813 13.9883 -0.000149377 13.6417 2.32903e-07ZM1.66667 2.5C1.66667 2.27899 1.75446 2.06702 1.91074 1.91074C2.06702 1.75446 2.27899 1.66667 2.5 1.66667H13.6417C13.7573 1.66654 13.8717 1.69048 13.9776 1.73696C14.0835 1.78345 14.1785 1.85146 14.2567 1.93667L21.4467 9.77333C21.588 9.92694 21.6665 10.128 21.6667 10.3367V27.5C21.6667 27.721 21.5789 27.933 21.4226 28.0893C21.2663 28.2455 21.0543 28.3333 20.8333 28.3333H2.5C2.27899 28.3333 2.06702 28.2455 1.91074 28.0893C1.75446 27.933 1.66667 27.721 1.66667 27.5V2.5Z" fill="#555555"/>
<path d="M14.168 1.83337V9.66671H22.0013" fill="#555555"/>
<path d="M8.55593 8.55473C8.79393 8.56202 9.03098 8.52144 9.253 8.43539C9.47503 8.34934 9.67751 8.21958 9.84844 8.05381C10.0194 7.88803 10.1553 7.68961 10.2481 7.47033C10.3409 7.25104 10.3887 7.01535 10.3887 6.77724C10.3887 6.53912 10.3409 6.30343 10.2481 6.08414C10.1553 5.86485 10.0194 5.66644 9.84844 5.50066C9.67751 5.33489 9.47503 5.20513 9.253 5.11908C9.03098 5.03303 8.79393 4.99245 8.55593 4.99973C8.09393 5.01388 7.65559 5.20736 7.33379 5.53916C7.012 5.87096 6.83203 6.31502 6.83203 6.77724C6.83203 7.23945 7.012 7.68351 7.33379 8.01531C7.65559 8.34711 8.09393 8.54059 8.55593 8.55473Z" fill="#555555"/>
<path fill-rule="evenodd" clip-rule="evenodd" d="M12.11 12.4069C12.11 10.5169 10.5183 9.14856 8.555 9.14856C6.59167 9.14856 5 10.5152 5 12.4069V13.2969C5.00044 13.454 5.06315 13.6045 5.17437 13.7154C5.2856 13.8263 5.43626 13.8886 5.59333 13.8886H11.5183C11.6751 13.8881 11.8254 13.8256 11.9362 13.7148C12.0471 13.6039 12.1096 13.4537 12.11 13.2969V12.4069Z" fill="#555555"/>
</svg>
