<svg width="142" height="123" viewBox="0 0 142 123" fill="none" xmlns="http://www.w3.org/2000/svg">
<g id="Welcome">
<g id="Fintech">
<g id="Home-Section">
<g id="Section-1">
<g id="Single-Feature">
<g id="accountant">
<path id="Path" opacity="0.18" d="M15.0214 104.104C5.6333 95.7219 0.18853 83.8142 0.00132118 71.2581C-0.111973 58.8619 7.07496 48.6174 16.236 40.2569C22.7601 34.2765 45.8794 -14.3199 89.7677 4.17451C104.099 10.2156 103.497 31.8429 113.055 44.1071C115.922 47.7931 119.479 50.8868 122.797 54.1875C128.69 60.0359 134.004 66.7336 136.673 74.5909C139.342 82.4482 139.03 91.6259 134.344 98.4734C130.349 104.311 123.743 107.819 117.104 110.288C100.122 116.6 81.6135 117.496 63.5028 116.929C46.9757 116.411 27.4141 115.034 15.0214 104.104Z" fill="#4765FF"/>
<path id="Path_2" d="M65.4577 79.1616C65.4239 79.3145 65.3557 79.4577 65.2584 79.58C63.8037 81.718 62.2487 83.7798 60.5934 85.7655C60.5384 85.8437 60.4635 85.9056 60.3766 85.9448C60.198 85.9743 60.0169 85.9092 59.8975 85.7725C59.8136 85.7022 59.7331 85.6353 59.6527 85.558C57.5265 83.7013 56.1557 81.1132 54.8338 78.5954C54.2568 77.4983 53.6868 76.4012 53.1098 75.3075C52.5963 74.3912 52.1589 73.4338 51.8019 72.4452C51.2808 70.8733 51.1654 69.203 51.0535 67.5503C50.8227 64.2167 49.8575 60.6405 48.6336 57.3737C48.3084 56.4981 47.9622 55.6471 47.6055 54.8313C50.2904 55.2427 52.95 55.8062 55.5717 56.5192C56.0126 56.6146 56.4353 56.7808 56.8236 57.0115C57.6174 57.539 57.9846 58.513 58.2644 59.4308C58.761 61.0624 59.1351 62.7222 59.4708 64.396C60.4465 69.3472 62.1566 74.3546 65.171 78.4618C65.3494 78.6514 65.4515 78.9007 65.4577 79.1616Z" fill="#4765FF"/>
<path id="Path_3" d="M63.9706 82.6893C63.9373 82.8502 63.867 83.0009 63.7655 83.1294C62.7691 84.6085 61.7262 86.0433 60.637 87.4337C58.4097 85.4812 56.9736 82.7596 55.5889 80.1119C54.9844 78.9582 54.3873 77.8044 53.7828 76.6544C53.245 75.6907 52.7867 74.684 52.4128 73.6443C51.8669 71.9913 51.746 70.2349 51.6288 68.4968C51.387 64.9913 50.3759 61.2305 49.0938 57.7952C50.7093 58.1354 52.3431 58.5347 53.6143 58.8786C54.0742 58.9818 54.5154 59.1564 54.9222 59.3963C55.7574 59.9547 56.1457 60.9753 56.4388 61.9405C56.945 63.6583 57.3644 65.4011 57.6953 67.1619C58.7247 72.3722 60.5161 77.638 63.6702 81.9535C63.8571 82.1528 63.9641 82.415 63.9706 82.6893Z" fill="url(#paint0_linear_6482_1128)"/>
<path id="Path_4" d="M52.0674 58.6246C53.3332 60.6305 53.8604 63.0071 54.1222 65.3556C54.384 67.704 54.3553 70.0807 54.6278 72.4185C54.8215 74.1137 55.1657 75.8123 55.0044 77.511C54.6816 80.9153 51.4972 82.9812 51.9741 87.7205C52.0458 88.4268 49.324 87.5686 48.7072 87.9253C47.9613 88.3597 47.0684 88.455 46.197 88.5362C41.804 88.9494 37.2605 89.3238 33.0755 87.95C32.6215 87.8328 32.1999 87.6168 31.8419 87.3179C31.5116 86.9547 31.2667 86.5242 31.1247 86.0571C30.3323 83.9285 29.7217 81.7384 29.2994 79.5098C28.9193 77.4792 28.6933 75.4238 28.2917 73.3968C27.8576 71.2108 27.2201 69.0687 26.3875 66.9977C25.907 65.8041 25.3547 64.6175 25.1862 63.3426C24.8813 61.0825 22.6759 57.6569 24.555 56.3044C25.3224 55.7464 32.681 54.9801 33.8788 54.4574C34.4888 54.1818 35.1165 53.9458 35.7579 53.7511C37.0459 53.4297 38.3755 53.2999 39.7026 53.3662C40.9569 53.3617 42.2087 53.48 43.4393 53.7193C44.5868 53.9665 45.5909 54.6057 46.6882 54.8565C48.9277 55.3384 50.8705 56.6993 52.0674 58.6246Z" fill="#4765FF"/>
<path id="Path_5" d="M52.0674 58.6246C53.3332 60.6305 53.8604 63.0071 54.1222 65.3556C54.384 67.704 54.3553 70.0807 54.6278 72.4185C54.8215 74.1137 55.1657 75.8123 55.0044 77.511C54.6816 80.9153 51.4972 82.9812 51.9741 87.7205C52.0458 88.4268 49.324 87.5686 48.7072 87.9253C47.9613 88.3597 47.0684 88.455 46.197 88.5362C41.804 88.9494 37.2605 89.3238 33.0755 87.95C32.6215 87.8328 32.1999 87.6168 31.8419 87.3179C31.5116 86.9547 31.2667 86.5242 31.1247 86.0571C30.3323 83.9285 29.7217 81.7384 29.2994 79.5098C28.9193 77.4792 28.6933 75.4238 28.2917 73.3968C27.8576 71.2108 27.2201 69.0687 26.3875 66.9977C25.907 65.8041 25.3547 64.6175 25.1862 63.3426C24.8813 61.0825 22.6759 57.6569 24.555 56.3044C25.3224 55.7464 32.681 54.9801 33.8788 54.4574C34.4888 54.1818 35.1165 53.9458 35.7579 53.7511C37.0459 53.4297 38.3755 53.2999 39.7026 53.3662C40.9569 53.3617 42.2087 53.48 43.4393 53.7193C44.5868 53.9665 45.5909 54.6057 46.6882 54.8565C48.9277 55.3384 50.8705 56.6993 52.0674 58.6246Z" fill="url(#paint1_linear_6482_1128)"/>
<path id="Path_6" d="M8.92578 123H141.33L113.209 87.4337H9.53432L8.92578 123Z" fill="#3F3D56"/>
<path id="Path_7" d="M8.92578 123H141.33L113.209 87.4337H9.53432L8.92578 123Z" fill="url(#paint2_linear_6482_1128)"/>
<path id="Path_8" d="M37.1953 94.0829V95.3213L42.0917 102.253L54.9053 99.8526L55.0476 97.0019L49.9828 91.8795L37.1953 94.0829Z" fill="#4765FF"/>
<path id="Path_9" d="M37.1953 94.0829V95.3213L42.0917 102.253L54.9053 99.8526L55.0476 97.0019L49.9828 91.8795L37.1953 94.0829Z" fill="url(#paint3_linear_6482_1128)"/>
<path id="Path_10" d="M31.1002 68.0698C31.0657 68.7721 30.9386 69.4677 30.7217 70.1406C30.4265 70.991 29.9155 71.7595 29.5862 72.5957C29.1291 73.6822 28.9602 74.857 29.0942 76.0185C29.1897 76.4969 29.2214 76.9845 29.1888 77.4702C29.1396 77.826 28.9995 78.1498 28.9163 78.495C28.64 79.6762 29.0677 80.8895 29.4916 82.0317C28.3465 82.368 27.2416 82.8151 26.1948 83.366L25.9109 83.5332C24.7792 84.1835 23.9423 85.2033 23.5604 86.3974C23.4507 86.8137 23.3296 87.3332 22.8867 87.4257C22.6757 87.4545 22.4611 87.4047 22.2887 87.287C21.5317 86.8173 21.3727 85.8637 21.297 85.0098C21.0358 82.0601 19.5937 65.476 23.568 59.0181C24.0222 58.278 24.9836 56.2072 27.1146 56.3175C28.7686 56.4029 29.7868 57.424 30.4 58.89C31.456 61.4447 31.2933 65.355 31.1002 68.0698Z" fill="#4765FF"/>
<path id="Path_11" d="M29.6354 68.1721C29.6061 68.8524 29.498 69.5261 29.3137 70.1779C29.0628 71.0016 28.6286 71.746 28.3487 72.5559C27.9602 73.6082 27.8167 74.7461 27.9305 75.8712C28.0117 76.3346 28.0387 76.8069 28.011 77.2773C27.9691 77.622 27.8501 77.9356 27.7794 78.2699C27.5445 79.4141 27.908 80.5893 28.2683 81.6956C27.2951 82.0213 26.3562 82.4544 25.4665 82.9879C25.1449 77.105 24.9905 66.2318 27.6314 61.3449C27.8791 60.8865 28.3005 59.9043 29.0435 59.2771C29.9378 61.755 29.7995 65.5426 29.6354 68.1721Z" fill="url(#paint4_linear_6482_1128)"/>
<path id="Path_12" d="M37.1953 54.1655C37.2958 54.9007 37.3523 55.6413 37.3645 56.3833C37.6746 63.0904 39.909 69.5579 42.6861 75.6497C43.2048 76.6755 43.6136 77.7548 43.9054 78.8691C44.0547 79.6452 44.1407 80.4324 44.1627 81.2228L44.4341 85.9518C44.292 83.5847 44.7303 81.2188 45.7098 79.0658C46.5204 77.2773 47.6869 75.6962 48.3601 73.8647C49.5759 70.5595 49.0649 66.8822 48.4094 63.416C47.9513 60.9442 47.0913 57.9609 47.3169 55.4533C47.4191 55.4283 41.657 53.586 38.7072 53.3607C38.0874 53.2837 37.4853 53.6042 37.1953 54.1655Z" fill="white"/>
<path id="Path_13" d="M35.7242 55.3161L32.7305 65.3425L36.5986 67.1811L35.2852 71.5479L40.5559 77.2003C41.3354 78.0392 41.9484 79.0315 42.3597 80.1198L44.5544 85.9518C44.5544 85.9518 45.2608 80.7124 42.4111 74.5824C39.5615 68.4523 37.5828 54.8313 37.5828 54.8313L35.7242 55.3161Z" fill="#4765FF"/>
<path id="Path_14" d="M35.7242 55.3161L32.7305 65.3425L36.5986 67.1811L35.2852 71.5479L40.5559 77.2003C41.3354 78.0392 41.9484 79.0315 42.3597 80.1198L44.5544 85.9518C44.5544 85.9518 45.2608 80.7124 42.4111 74.5824C39.5615 68.4523 37.5828 54.8313 37.5828 54.8313L35.7242 55.3161Z" fill="url(#paint5_linear_6482_1128)"/>
<path id="Path_15" d="M47.8326 56.3132L48.9733 56.6587L53.3955 64.2903C53.3955 64.2903 51.6122 68.0491 51.6122 67.7451C51.6122 67.4411 53.559 71.801 53.559 71.801C53.559 71.801 50.3992 77.8434 48.2129 78.7278C46.0265 79.6123 44.6805 85.9518 44.6805 85.9518C44.6805 85.9518 43.8668 80.2998 48.9619 74.0881C49.2585 73.7426 49.8327 71.0617 49.2661 66.6396C48.6996 62.2175 47.0988 57.626 47.8326 56.3132Z" fill="#4765FF"/>
<path id="Path_16" d="M47.8326 56.3132L48.9733 56.6587L53.3955 64.2903C53.3955 64.2903 51.6122 68.0491 51.6122 67.7451C51.6122 67.4411 53.559 71.801 53.559 71.801C53.559 71.801 50.3992 77.8434 48.2129 78.7278C46.0265 79.6123 44.6805 85.9518 44.6805 85.9518C44.6805 85.9518 43.8668 80.2998 48.9619 74.0881C49.2585 73.7426 49.8327 71.0617 49.2661 66.6396C48.6996 62.2175 47.0988 57.626 47.8326 56.3132Z" fill="url(#paint6_linear_6482_1128)"/>
<path id="Path_17" d="M31.7626 49.1344C31.3295 46.1278 30.1945 37.7954 34.5111 33.5012C39.823 28.2048 45.4073 28.9985 49.3188 32.0381C50.7803 33.1069 51.9252 34.5849 52.6226 36.303C53.2337 37.9161 53.3769 39.6718 53.4642 41.391C53.5812 42.5628 53.5882 43.7438 53.4852 44.917C53.3319 46.0573 52.9576 47.1527 52.3851 48.1359C52.1825 48.4834 51.9555 48.8126 51.76 49.1674C51.2197 50.1973 50.9003 51.3381 50.824 52.5105C50.7472 53.6807 50.7682 54.8557 50.8869 56.022C50.9043 56.2159 51.0196 56.2195 50.8205 56.3C50.6583 56.3254 50.4928 56.3142 50.3351 56.2671C50.0382 56.2195 49.7483 56.1317 49.455 56.0878C48.519 55.9525 47.5865 55.8062 46.6611 55.6599L36.1315 55.5172L31.2422 54.6613C31.8736 52.8982 32.053 50.9927 31.7626 49.1344Z" fill="#FF979A"/>
<path id="Path_18" d="M31.7663 48.0745C31.333 45.2313 30.1975 37.3519 34.516 33.2912C39.8304 28.2827 45.4172 29.0333 49.3305 31.9076C51.3644 33.4425 52.7512 35.6694 53.2227 38.1578C53.4316 39.1899 53.5415 40.2391 53.5512 41.2916C53.5756 42.5887 53.5512 44.1694 53.0795 45.3904C52.779 46.1998 52.2409 46.8984 51.8636 47.6767C51.376 48.8085 51.0548 50.0035 50.9097 51.2255C50.7106 52.4157 50.7379 53.6322 50.9901 54.8124C50.2389 54.9058 49.2955 54.6291 48.5443 54.5184C47.9189 54.4319 47.2935 54.3385 46.6681 54.2451L36.1337 54.1102L31.2422 53.3009C31.875 51.634 32.0557 49.832 31.7663 48.0745Z" fill="url(#paint7_linear_6482_1128)"/>
<path id="Path_19" d="M47.3343 59.0226C46.6428 59.9866 45.5187 60.6211 44.265 60.755C44.1743 60.7603 44.0834 60.7603 43.9928 60.755C43.6763 60.7512 43.3619 60.7088 43.0578 60.6289C42.2268 60.3921 41.4585 60.0009 40.8012 59.48C39.2916 58.3497 38.1022 56.9043 37.3334 55.266C37.2587 55.1245 37.212 54.9721 37.1953 54.8158C37.1953 54.7186 37.4991 54.5349 37.8975 54.0775C38.5385 53.3093 38.9821 52.4193 39.1955 51.4735C39.3809 50.7748 39.1008 49.0496 39.0732 48.0951C39.0732 47.6918 39.0732 47.4252 39.2073 47.4216C39.5194 47.4429 39.8168 47.551 40.0595 47.7314C41.4778 48.6243 42.6621 49.7928 43.5272 51.1529L43.7206 51.4735C44.1848 52.2155 44.529 53.0149 44.7423 53.847C44.9238 54.7294 45.8746 54.3044 46.9832 54.5673C47.1331 54.6033 47.2554 54.8374 47.354 55.1796C47.6696 56.2853 47.7249 58.5255 47.3343 59.0226Z" fill="#FFDAD2"/>
<path id="Path_20" d="M46.1086 55.5085C46.1086 55.6223 46.1086 55.7429 46.1086 55.8434C46.0714 56.6472 46.0416 57.4511 46.0044 58.2549C45.9858 58.6836 45.9337 59.1726 45.5504 59.4171C44.729 59.9113 43.8566 60.333 42.9452 60.6765C42.7794 60.7544 42.5887 60.7781 42.4056 60.7435C42.2865 60.6898 42.1721 60.6283 42.0632 60.5593C40.5299 59.5545 38.2039 56.2654 37.1953 54.4668C37.7999 53.7524 38.2184 52.9248 38.4197 52.0452C38.5946 51.3955 38.3304 49.7911 38.3044 48.9036C38.9854 49.3658 40.8797 50.6553 42.5061 51.7472C43.6523 52.5208 44.6646 53.1974 45.0182 53.4218C45.2584 53.5567 45.4764 53.7214 45.6657 53.9108C46.013 54.3817 46.1694 54.9459 46.1086 55.5085Z" fill="url(#paint8_linear_6482_1128)"/>
<path id="Path_21" d="M40.7733 87.7373C41.1933 87.9216 41.5567 88.1807 41.9601 88.389C42.1568 88.4905 42.3635 88.5786 42.5635 88.656C43.1982 88.9423 43.7986 89.2749 44.3571 89.6495C44.5011 89.7251 44.6 89.8449 44.6304 89.9807C44.6163 90.1137 44.5164 90.2312 44.3671 90.2905C43.9706 90.4333 43.5167 90.4333 43.1203 90.2905C42.7294 90.1475 42.3152 90.0495 41.8901 89.9994C41.7201 89.9994 41.5567 89.9994 41.3834 89.9994C41.2011 89.9697 41.0271 89.9136 40.87 89.8338C40.0885 89.4202 39.4397 88.8648 38.9764 88.2127C38.8121 88.0444 38.7094 87.8428 38.6797 87.6305C38.6797 87.4195 38.9431 87.4436 39.1564 87.4356C39.7194 87.4183 40.2778 87.5225 40.7733 87.7373Z" fill="#FFDAD2"/>
<path id="Path_22" d="M65.3857 80.1165C68.7432 81.3717 72.2474 82.195 75.8137 82.5666C77.4028 82.7309 79.0468 82.8186 80.4821 83.5233C82.2104 84.3741 83.4113 86.0027 84.5098 87.5765C84.7308 87.8086 84.8332 88.1287 84.7881 88.4455C84.6672 88.8107 84.1839 88.9239 83.7885 88.9093C81.5513 88.8253 79.7279 87.0287 77.5346 86.5833C77.462 86.9832 77.6477 87.3859 77.9996 87.5911C78.3454 87.7846 78.678 88.0005 78.9956 88.2374C79.1017 88.336 79.2006 88.482 79.1457 88.6025C79.1095 88.6724 79.0517 88.7287 78.9809 88.7632C78.4756 89.048 77.8458 88.88 77.2966 88.6938C76.1249 88.3031 74.9239 87.8321 74.0964 86.9119C73.7303 86.4883 73.4081 85.9625 72.8918 85.7215C72.4407 85.5537 71.9533 85.5071 71.4785 85.5864C68.2197 85.842 64.0602 87.2332 60.882 86.4701C60.672 86.4317 60.4716 86.3523 60.2925 86.2364C59.8898 85.9406 59.4833 84.7758 59.509 84.2646C59.5332 83.2082 59.921 82.1922 60.6074 81.3872C61.3178 80.6167 64.4007 79.7586 65.3894 80.1019" fill="#FFDAD2"/>
<path id="Path_23" d="M62.4844 94.7394L81.4209 102.253L110.09 96.364L91.553 88.9156L62.4844 93.4412V94.7394Z" fill="#4765FF"/>
<path id="Path_24" d="M62.4844 93.2559L81.4209 100.771L110.09 94.8836L91.553 87.4337L62.4844 93.2559Z" fill="#4765FF"/>
<path id="Path_25" d="M62.4844 93.2559L81.4209 100.771L110.09 94.8836L91.553 87.4337L62.4844 93.2559Z" fill="url(#paint9_linear_6482_1128)"/>
<path id="Path_26" d="M42.1244 100.771L55.0476 98.3853L49.8898 93.3615L37.1953 95.5066L42.1244 100.771Z" fill="#4765FF"/>
<path id="Path_27" d="M28.3956 96.3253L35.7054 114.776L11.9023 115.59L12.0359 96.5685L28.3956 96.3253Z" fill="white"/>
<path id="Path_28" d="M31.6031 83.5056C32.7071 84.1329 33.8699 84.764 35.1248 84.9959C36.1405 85.186 37.193 85.1023 38.1939 85.3532C39.9198 85.7866 41.3219 87.1895 42.1057 88.8394C42.8896 90.4894 43.1214 92.3826 43.1435 94.2075C43.1435 94.3671 43.103 94.5876 42.9521 94.5876C42.8752 94.5879 42.8007 94.5596 42.7424 94.5078C41.5353 93.6182 41.366 91.7211 40.1664 90.8163L41.0201 94.006C41.0974 94.2987 41.1305 94.6979 40.8582 94.8119C40.7477 94.8538 40.6265 94.8538 40.516 94.8119C39.6291 94.5458 39.044 93.7094 38.5509 92.9111C38.0578 92.1127 37.5978 91.2155 36.8029 90.7365C37.2494 92.0037 37.6701 93.271 38.0651 94.5382C37.653 94.7169 37.193 94.4356 36.8618 94.1238C35.8755 93.181 35.2904 91.8846 34.7311 90.6224C35.0287 91.6577 35.18 92.7321 35.18 93.8121C34.7237 93.8691 34.4072 93.3711 34.2048 92.9415L32.03 88.2996C31.9727 88.1583 31.8903 88.0293 31.7871 87.9194C31.6591 87.8197 31.5125 87.7485 31.3565 87.7103C28.5708 86.8283 25.5974 87.2921 22.808 86.4101C22.4078 86.3029 22.0239 86.1391 21.6672 85.9235C21.0416 85.5053 20.8281 83.403 20.8281 82.635C20.836 81.8492 21.2206 81.1186 21.8548 80.6847C22.6203 80.1753 23.5587 80.2095 24.4308 80.1753C25.1668 80.1487 26.5615 79.8217 27.2055 80.2209C28.9241 81.2854 29.8441 82.5286 31.6031 83.5056Z" fill="#FFDAD2"/>
<path id="Path_29" d="M40.168 98.1253L41.0374 99.2892L50.5818 97.4723L49.1076 96.3253L40.168 98.1253Z" fill="white"/>
<path id="Path_30" d="M81.8242 102.253L110.613 96.5575L117.529 71.1326L88.7431 76.8246L81.8242 102.253Z" fill="#4765FF"/>
<path id="Path_31" d="M81.8242 102.253L110.613 96.5575L117.529 71.1326L88.7431 76.8246L81.8242 102.253Z" fill="url(#paint10_linear_6482_1128)"/>
<path id="Path_32" d="M83.3125 102.253L112.102 96.5575L119.017 71.1326L90.2279 76.8246L83.3125 102.253Z" fill="#4765FF"/>
<path id="Path_33" d="M29.6752 81.9054C29.5393 81.5212 29.3419 81.1723 29.094 80.878C28.9151 80.6019 28.6917 80.3711 28.437 80.1989C28.12 80.0536 27.779 79.9977 27.4407 80.0355L23.7876 80.1043C23.0656 80.1043 22.2823 80.1516 21.6939 80.6674C21.0188 81.2606 20.7842 82.361 20.8347 83.3582C20.9491 84.3521 21.1191 85.3358 21.3437 86.3027C21.4016 86.9821 21.5721 87.641 21.8455 88.2413C22.1668 88.8001 22.8599 89.1397 23.3219 88.7442C23.0806 87.4634 23.0548 86.1383 23.2461 84.8455C23.3247 84.1712 23.6604 83.5778 24.1558 83.2379C24.4409 83.1135 24.7442 83.0594 25.0474 83.0788L28.1121 83.0316C28.8377 83.0187 30.0795 83.2981 29.6752 81.9054Z" fill="#4765FF"/>
<path id="Path_34" d="M29.6752 81.9054C29.5393 81.5212 29.3419 81.1723 29.094 80.878C28.9151 80.6019 28.6917 80.3711 28.437 80.1989C28.12 80.0536 27.779 79.9977 27.4407 80.0355L23.7876 80.1043C23.0656 80.1043 22.2823 80.1516 21.6939 80.6674C21.0188 81.2606 20.7842 82.361 20.8347 83.3582C20.9491 84.3521 21.1191 85.3358 21.3437 86.3027C21.4016 86.9821 21.5721 87.641 21.8455 88.2413C22.1668 88.8001 22.8599 89.1397 23.3219 88.7442C23.0806 87.4634 23.0548 86.1383 23.2461 84.8455C23.3247 84.1712 23.6604 83.5778 24.1558 83.2379C24.4409 83.1135 24.7442 83.0594 25.0474 83.0788L28.1121 83.0316C28.8377 83.0187 30.0795 83.2981 29.6752 81.9054Z" fill="url(#paint11_linear_6482_1128)"/>
<path id="Path_35" fill-rule="evenodd" clip-rule="evenodd" d="M15.5296 114.108L34.2189 113.197L28.8967 97.8073H14.8789L15.5296 114.108Z" stroke="url(#paint12_linear_6482_1128)" strokeWidth="0.95"/>
<path id="Path_36" d="M16.3672 114.108L34.2195 112.626" stroke="url(#paint13_linear_6482_1128)" strokeWidth="0.95"/>
<path id="Path_37" d="M16.3672 112.626L34.2195 111.145" stroke="url(#paint14_linear_6482_1128)" strokeWidth="0.95"/>
<path id="Path_38" d="M14.8789 109.663L31.2435 108.181" stroke="url(#paint15_linear_6482_1128)" strokeWidth="0.92"/>
<path id="Path_39" d="M14.8789 106.699L31.2435 105.217" stroke="url(#paint16_linear_6482_1128)" strokeWidth="0.92"/>
<path id="Path_40" d="M14.8789 106.699L31.2435 105.217" stroke="url(#paint17_linear_6482_1128)" strokeWidth="0.92"/>
<path id="Path_41" d="M14.8789 106.699L31.2435 105.217" stroke="url(#paint18_linear_6482_1128)" strokeWidth="0.92"/>
<path id="Path_42" d="M14.8789 103.735L31.2435 102.253" stroke="url(#paint19_linear_6482_1128)" strokeWidth="0.92"/>
<path id="Path_43" d="M14.8789 102.253L29.7558 100.771" stroke="url(#paint20_linear_6482_1128)" strokeWidth="0.92"/>
<path id="Path_44" d="M14.8789 99.4794L29.7558 99.099" stroke="url(#paint21_linear_6482_1128)" strokeWidth="0.92"/>
<path id="Path_45" d="M13.3906 99.3922L28.2675 99.186" stroke="url(#paint22_linear_6482_1128)" strokeWidth="0.92"/>
<path id="Path_46" d="M17.8549 114.108L16.3672 97.8073" stroke="url(#paint23_linear_6482_1128)" strokeWidth="0.92"/>
<path id="Path_47" d="M20.8281 97.8073L23.8035 114.108" stroke="url(#paint24_linear_6482_1128)" strokeWidth="0.92"/>
<path id="Path_48" d="M26.7812 97.8073L29.7566 114.108" stroke="url(#paint25_linear_6482_1128)" strokeWidth="0.92"/>
<path id="Path_49" d="M52.0876 51.1917C51.6682 51.8923 51.1751 52.5424 50.6176 53.1301C49.6469 54.2252 48.6376 55.3605 47.3294 55.9811C46.9031 56.1968 46.4356 56.3103 45.9613 56.3133C45.1419 56.2841 44.4104 55.7767 43.7844 55.2181C39.821 51.7612 38.0837 45.9679 38.8609 40.6493C39.0036 39.3626 39.4243 38.126 40.0918 37.0317C41.2207 35.3342 43.1971 34.4034 45.1701 34.1624C46.6609 33.9549 48.1781 34.1628 49.5661 34.7648C50.9519 35.3756 52.0913 36.4655 52.791 37.8494C53.0867 38.5177 53.3222 39.2131 53.4943 39.9265C53.853 41.2114 52.5659 50.3485 52.0876 51.1917Z" fill="#FFDAD2"/>
<path id="Path_50" d="M51.9546 37.9436C50.9921 38.7818 49.868 39.416 48.651 39.8075C47.8655 40.0952 47.0607 40.3282 46.2427 40.5046C44.9355 40.7842 43.5721 40.9296 42.3997 41.567C40.7592 42.4543 39.7366 44.1765 39.1336 45.9398C38.5154 45.4424 38.0282 44.8027 37.7141 44.0759C37.3896 43.2847 37.2168 42.4401 37.2047 41.5857C37.1283 39.6755 37.5204 37.7755 38.347 36.0499C39.0584 34.4785 40.2464 33.1684 41.7443 32.3034C42.5794 31.883 43.4714 31.5854 44.3924 31.4199C45.6435 31.1283 46.9351 31.0489 48.2128 31.1851C50.0074 31.4292 51.6678 32.2653 52.9285 33.5597C53.6251 34.2792 53.6776 34.678 53.4116 35.6137C53.1455 36.5067 52.6421 37.3117 51.9546 37.9436Z" fill="#FF979A"/>
<path id="Path_51" d="M39.7674 99.2892L38.6797 97.0953L40.5187 96.3253L41.6551 98.3619L39.7674 99.2892Z" fill="url(#paint26_linear_6482_1128)"/>
<path id="Path_52" d="M38.283 97.8072L37.1953 95.6133L39.0381 94.8434L40.1707 96.8883L38.283 97.8072Z" fill="url(#paint27_linear_6482_1128)"/>
<path id="Path_53" d="M41.2557 97.8072L40.168 95.6155L42.007 94.8434L43.1433 96.8857L41.2557 97.8072Z" fill="url(#paint28_linear_6482_1128)"/>
<path id="Path_54" d="M41.2571 97.8072L40.168 95.6133L42.0093 94.8434L43.1433 96.88L41.2571 97.8072Z" fill="url(#paint29_linear_6482_1128)"/>
<path id="Path_55" d="M44.2323 97.8072L43.1445 95.6216L44.9873 94.8434L46.1199 96.8883L44.2323 97.8072Z" fill="url(#paint30_linear_6482_1128)"/>
<path id="Path_56" d="M41.2557 96.3253L40.168 94.1314L42.007 93.3615L43.1433 95.3981L41.2557 96.3253Z" fill="url(#paint31_linear_6482_1128)"/>
<path id="Path_57" d="M45.7205 97.8072L44.6328 95.6133L46.4719 94.8434L47.6082 96.8883L45.7205 97.8072Z" fill="url(#paint32_linear_6482_1128)"/>
<path id="Path_58" d="M44.2323 96.3253L43.1445 94.1335L44.9873 93.3615L46.1199 95.4038L44.2323 96.3253Z" fill="url(#paint33_linear_6482_1128)"/>
<path id="Path_59" d="M48.6932 97.8072L47.6055 95.6133L49.4445 94.8434L50.5808 96.88L48.6932 97.8072Z" fill="url(#paint34_linear_6482_1128)"/>
<path id="Path_60" d="M47.2102 94.8434L46.1211 92.6516L47.9625 91.8795L49.0965 93.9218L47.2102 94.8434Z" fill="url(#paint35_linear_6482_1128)"/>
</g>
</g>
</g>
</g>
</g>
</g>
<defs>
<linearGradient id="paint0_linear_6482_1128" x1="589.943" y1="2009.91" x2="1165.86" y2="1587.55" gradientUnits="userSpaceOnUse">
<stop offset="0.01"/>
<stop offset="1" stop-opacity="0"/>
</linearGradient>
<linearGradient id="paint1_linear_6482_1128" x1="639.279" y1="3474.22" x2="2118.82" y2="1400.24" gradientUnits="userSpaceOnUse">
<stop offset="0.01"/>
<stop offset="1" stop-opacity="0"/>
</linearGradient>
<linearGradient id="paint2_linear_6482_1128" x1="6433.06" y1="2080.9" x2="6459.67" y2="1730.52" gradientUnits="userSpaceOnUse">
<stop offset="0.01"/>
<stop offset="1" stop-opacity="0"/>
</linearGradient>
<linearGradient id="paint3_linear_6482_1128" x1="942.35" y1="386.175" x2="928.683" y2="952.011" gradientUnits="userSpaceOnUse">
<stop offset="0.01"/>
<stop offset="1" stop-opacity="0"/>
</linearGradient>
<linearGradient id="paint4_linear_6482_1128" x1="282.274" y1="2627.84" x2="-557.621" y2="1445.65" gradientUnits="userSpaceOnUse">
<stop offset="0.01"/>
<stop offset="1" stop-opacity="0"/>
</linearGradient>
<linearGradient id="paint5_linear_6482_1128" x1="778.483" y1="1106.66" x2="264.247" y2="1413.84" gradientUnits="userSpaceOnUse">
<stop offset="0.01"/>
<stop offset="1" stop-opacity="0"/>
</linearGradient>
<linearGradient id="paint6_linear_6482_1128" x1="401.649" y1="1272.05" x2="692.027" y2="1380.61" gradientUnits="userSpaceOnUse">
<stop offset="0.01"/>
<stop offset="1" stop-opacity="0"/>
</linearGradient>
<linearGradient id="paint7_linear_6482_1128" x1="1509.77" y1="3118.43" x2="638.383" y2="402.893" gradientUnits="userSpaceOnUse">
<stop offset="0.01"/>
<stop offset="1" stop-opacity="0"/>
</linearGradient>
<linearGradient id="paint8_linear_6482_1128" x1="763.972" y1="-66.6486" x2="165.127" y2="759.46" gradientUnits="userSpaceOnUse">
<stop offset="0.01"/>
<stop offset="1" stop-opacity="0"/>
</linearGradient>
<linearGradient id="paint9_linear_6482_1128" x1="2611.95" y1="790.649" x2="2517.22" y2="529.301" gradientUnits="userSpaceOnUse">
<stop offset="0.01"/>
<stop offset="1" stop-opacity="0"/>
</linearGradient>
<linearGradient id="paint10_linear_6482_1128" x1="81.8242" y1="1626.98" x2="3652.28" y2="1626.98" gradientUnits="userSpaceOnUse">
<stop offset="0.01"/>
<stop offset="1" stop-opacity="0"/>
</linearGradient>
<linearGradient id="paint11_linear_6482_1128" x1="43.5093" y1="1237.46" x2="620.25" y2="-31.8493" gradientUnits="userSpaceOnUse">
<stop offset="0.01"/>
<stop offset="1" stop-opacity="0"/>
</linearGradient>
<linearGradient id="paint12_linear_6482_1128" x1="-2.93422" y1="913.414" x2="1972.87" y2="913.414" gradientUnits="userSpaceOnUse">
<stop offset="0.01"/>
<stop offset="1" stop-opacity="0"/>
</linearGradient>
<linearGradient id="paint13_linear_6482_1128" x1="15.6425" y1="187.137" x2="1801.96" y2="187.137" gradientUnits="userSpaceOnUse">
<stop offset="0.01"/>
<stop offset="1" stop-opacity="0"/>
</linearGradient>
<linearGradient id="paint14_linear_6482_1128" x1="15.6425" y1="184.827" x2="1801.96" y2="184.827" gradientUnits="userSpaceOnUse">
<stop offset="0.01"/>
<stop offset="1" stop-opacity="0"/>
</linearGradient>
<linearGradient id="paint15_linear_6482_1128" x1="14.1694" y1="182.691" x2="1651.69" y2="182.691" gradientUnits="userSpaceOnUse">
<stop offset="0.01"/>
<stop offset="1" stop-opacity="0"/>
</linearGradient>
<linearGradient id="paint16_linear_6482_1128" x1="14.5156" y1="179.313" x2="1651.7" y2="179.313" gradientUnits="userSpaceOnUse">
<stop offset="0.01"/>
<stop offset="1" stop-opacity="0"/>
</linearGradient>
<linearGradient id="paint17_linear_6482_1128" x1="13.7719" y1="179.001" x2="1652.44" y2="179.001" gradientUnits="userSpaceOnUse">
<stop offset="0.01"/>
<stop offset="1" stop-opacity="0"/>
</linearGradient>
<linearGradient id="paint18_linear_6482_1128" x1="14.1227" y1="179.313" x2="1652.09" y2="179.313" gradientUnits="userSpaceOnUse">
<stop offset="0.01"/>
<stop offset="1" stop-opacity="0"/>
</linearGradient>
<linearGradient id="paint19_linear_6482_1128" x1="14.1061" y1="175.9" x2="1651.72" y2="175.9" gradientUnits="userSpaceOnUse">
<stop offset="0.01"/>
<stop offset="1" stop-opacity="0"/>
</linearGradient>
<linearGradient id="paint20_linear_6482_1128" x1="14.1557" y1="174.396" x2="1503.29" y2="174.396" gradientUnits="userSpaceOnUse">
<stop offset="0.01"/>
<stop offset="1" stop-opacity="0"/>
</linearGradient>
<linearGradient id="paint21_linear_6482_1128" x1="14.5074" y1="118.296" x2="1502.94" y2="118.296" gradientUnits="userSpaceOnUse">
<stop offset="0.01"/>
<stop offset="1" stop-opacity="0"/>
</linearGradient>
<linearGradient id="paint22_linear_6482_1128" x1="13.0127" y1="109.495" x2="1501.46" y2="109.495" gradientUnits="userSpaceOnUse">
<stop offset="0.01"/>
<stop offset="1" stop-opacity="0"/>
</linearGradient>
<linearGradient id="paint23_linear_6482_1128" x1="-9.1678" y1="912.868" x2="190.671" y2="912.868" gradientUnits="userSpaceOnUse">
<stop offset="0.01"/>
<stop offset="1" stop-opacity="0"/>
</linearGradient>
<linearGradient id="paint24_linear_6482_1128" x1="-1.24728" y1="913.056" x2="340.442" y2="913.056" gradientUnits="userSpaceOnUse">
<stop offset="0.01"/>
<stop offset="1" stop-opacity="0"/>
</linearGradient>
<linearGradient id="paint25_linear_6482_1128" x1="15.7334" y1="913.058" x2="335.367" y2="913.058" gradientUnits="userSpaceOnUse">
<stop offset="0.01"/>
<stop offset="1" stop-opacity="0"/>
</linearGradient>
<linearGradient id="paint26_linear_6482_1128" x1="179.973" y1="444.868" x2="191.1" y2="128.61" gradientUnits="userSpaceOnUse">
<stop offset="0.01"/>
<stop offset="1" stop-opacity="0"/>
</linearGradient>
<linearGradient id="paint27_linear_6482_1128" x1="178.862" y1="444.214" x2="189.619" y2="127.956" gradientUnits="userSpaceOnUse">
<stop offset="0.01"/>
<stop offset="1" stop-opacity="0"/>
</linearGradient>
<linearGradient id="paint28_linear_6482_1128" x1="181.461" y1="444.362" x2="192.588" y2="127.219" gradientUnits="userSpaceOnUse">
<stop offset="0.01"/>
<stop offset="1" stop-opacity="0"/>
</linearGradient>
<linearGradient id="paint29_linear_6482_1128" x1="181.639" y1="444.214" x2="192.78" y2="127.128" gradientUnits="userSpaceOnUse">
<stop offset="0.01"/>
<stop offset="1" stop-opacity="0"/>
</linearGradient>
<linearGradient id="paint30_linear_6482_1128" x1="184.811" y1="444.214" x2="195.568" y2="127.956" gradientUnits="userSpaceOnUse">
<stop offset="0.01"/>
<stop offset="1" stop-opacity="0"/>
</linearGradient>
<linearGradient id="paint31_linear_6482_1128" x1="181.461" y1="441.904" x2="192.588" y2="125.646" gradientUnits="userSpaceOnUse">
<stop offset="0.01"/>
<stop offset="1" stop-opacity="0"/>
</linearGradient>
<linearGradient id="paint32_linear_6482_1128" x1="185.926" y1="444.214" x2="197.053" y2="127.956" gradientUnits="userSpaceOnUse">
<stop offset="0.01"/>
<stop offset="1" stop-opacity="0"/>
</linearGradient>
<linearGradient id="paint33_linear_6482_1128" x1="184.811" y1="442.88" x2="195.568" y2="125.737" gradientUnits="userSpaceOnUse">
<stop offset="0.01"/>
<stop offset="1" stop-opacity="0"/>
</linearGradient>
<linearGradient id="paint34_linear_6482_1128" x1="188.899" y1="444.214" x2="200.026" y2="127.128" gradientUnits="userSpaceOnUse">
<stop offset="0.01"/>
<stop offset="1" stop-opacity="0"/>
</linearGradient>
<linearGradient id="paint35_linear_6482_1128" x1="187.592" y1="441.4" x2="198.733" y2="124.255" gradientUnits="userSpaceOnUse">
<stop offset="0.01"/>
<stop offset="1" stop-opacity="0"/>
</linearGradient>
</defs>
</svg>
