<svg width="122" height="134" viewBox="0 0 122 134" fill="none" xmlns="http://www.w3.org/2000/svg">
<g id="Welcome">
<g id="Fintech">
<g id="Home-Section">
<g id="Section-1">
<g id="Single-Feature">
<g id="travel_planning" opacity="0.75">
<path id="Oval" opacity="0.18" d="M66.3634 134C85.9847 134 101.891 131.3 101.891 127.97C101.891 124.64 85.9847 121.94 66.3634 121.94C46.7421 121.94 30.8359 124.64 30.8359 127.97C30.8359 131.3 46.7421 134 66.3634 134Z" fill="#4765FF"/>
<path id="Path" opacity="0.18" d="M110.566 60.0825C110.757 52.887 107.59 46.0716 104.457 39.5787C100.814 32.0336 96.9315 24.2475 90.3299 19.024C82.3362 12.6838 71.3222 11.0614 61.2078 12.6024C51.0934 14.1433 41.6528 18.5285 32.5611 23.192C27.1909 25.948 21.8515 28.8364 17.0833 32.5258C14.1144 34.8236 11.3061 37.5321 9.9003 41.011C8.67234 44.0284 8.60735 47.3682 8.55946 50.6197L8.05323 84.6999C8.02586 86.5531 8.00534 88.4606 8.66208 90.195C9.54799 92.5267 11.525 94.2509 13.4303 95.8733C17.2954 99.1656 21.4479 102.594 26.4863 103.34C31.7949 104.128 37.0693 101.779 42.4361 101.643C48.8837 101.491 54.9072 104.515 61.0846 106.361C68.82 108.664 76.989 109.149 84.946 107.78C90.6309 106.792 96.35 104.725 100.366 100.622C102.678 98.2458 104.32 95.3235 105.623 92.2925C107.418 88.1204 108.617 83.7198 109.184 79.2184C109.58 76.0823 111.154 72.7696 111.263 69.6912C111.38 66.555 110.477 63.3476 110.566 60.0825Z" fill="#4765FF"/>
<path id="Path_2" d="M53.6536 71.0135C52.4101 69.7461 50.9985 68.651 49.4574 67.7582C48.8858 67.389 48.2459 67.1354 47.5746 67.0119C46.5263 66.876 45.4846 67.3051 44.8443 68.1367C44.2041 68.9682 44.0633 70.0749 44.4754 71.0371C44.8583 71.7849 45.4144 72.4328 46.0985 72.9282C48.3319 74.7651 50.8358 76.2545 53.5237 77.3452C54.001 77.5702 54.5194 77.6977 55.0477 77.72C55.8473 77.72 56.5683 77.2506 57.1868 76.7474C58.9534 75.3021 60.2622 73.3706 61.4376 71.439C62.3397 69.9734 63.2077 68.4639 63.6826 66.8126C63.9526 65.8739 64.0927 64.9047 64.2669 63.9457C64.4412 62.9866 64.6326 62.1052 64.8649 61.1935C65.0631 60.4202 65.7534 59.1403 65.6884 58.3603C65.5347 56.5807 63.0744 58.5089 62.4149 58.9749C59.8169 60.8695 57.6476 63.2791 56.0455 66.0495C55.1021 67.6314 54.3017 69.2926 53.6536 71.0135Z" fill="#4765FF"/>
<path id="Path_3" d="M53.6536 71.0135C52.4101 69.7461 50.9985 68.651 49.4574 67.7582C48.8858 67.389 48.2459 67.1354 47.5746 67.0119C46.5263 66.876 45.4846 67.3051 44.8443 68.1367C44.2041 68.9682 44.0633 70.0749 44.4754 71.0371C44.8583 71.7849 45.4144 72.4328 46.0985 72.9282C48.3319 74.7651 50.8358 76.2545 53.5237 77.3452C54.001 77.5702 54.5194 77.6977 55.0477 77.72C55.8473 77.72 56.5683 77.2506 57.1868 76.7474C58.9534 75.3021 60.2622 73.3706 61.4376 71.439C62.3397 69.9734 63.2077 68.4639 63.6826 66.8126C63.9526 65.8739 64.0927 64.9047 64.2669 63.9457C64.4412 62.9866 64.6326 62.1052 64.8649 61.1935C65.0631 60.4202 65.7534 59.1403 65.6884 58.3603C65.5347 56.5807 63.0744 58.5089 62.4149 58.9749C59.8169 60.8695 57.6476 63.2791 56.0455 66.0495C55.1021 67.6314 54.3017 69.2926 53.6536 71.0135Z" fill="url(#paint0_linear_6175_13151)"/>
<path id="Path_4" d="M45.4306 65.7063C45.0439 65.0185 44.6168 64.3598 44.152 63.7344C44.0881 63.6447 44.0006 63.5476 43.8963 63.5701C43.792 63.5925 43.7382 63.7456 43.6776 63.8576C43.432 64.3095 42.7928 64.1452 42.4226 63.8128C42.0525 63.4804 41.7161 63.0099 41.2383 62.98C40.7155 63.0108 40.2889 63.4558 40.2289 64.0331C40.184 64.5991 40.2881 65.1673 40.5284 65.6689C40.7125 66.1482 40.9226 66.6147 41.1576 67.0657C41.4528 67.6645 41.8426 68.1996 42.3083 68.6454C42.7664 69.0404 43.2917 69.3288 43.8526 69.4932C44.3953 69.6895 44.9736 69.7319 45.5349 69.6164C46.1016 69.4945 46.5811 69.0776 46.8235 68.496C47.2979 67.2076 45.9319 66.6213 45.4306 65.7063Z" fill="#F3C091"/>
<path id="Path_5" d="M59.0494 120.995C59.0355 121.17 59.0628 121.347 59.1297 121.512C59.3304 121.912 59.9544 122.02 60.4288 121.884C60.9074 121.749 61.2958 121.441 61.4944 121.04C61.6515 120.659 61.704 120.251 61.6477 119.849C61.6173 119.462 61.5576 119.077 61.4689 118.697C61.4408 118.418 61.2792 118.162 61.0237 117.992C60.4434 117.707 59.3559 118.329 59.137 118.818C58.8596 119.424 59.0567 120.351 59.0494 120.995Z" fill="#FFCD90"/>
<path id="Path_6" d="M60.0541 120.814C59.8815 120.955 59.6871 121.076 59.4763 121.173C59.1931 121.262 58.8887 121.291 58.5894 121.258C58.3476 121.207 58.0951 121.207 57.8533 121.258C57.7162 121.322 57.5919 121.405 57.4853 121.503C57.2284 121.684 56.951 121.842 56.6572 121.976L55.4354 122.552C55.0701 122.714 54.728 122.912 54.4159 123.141C54.2282 123.292 54.0663 123.456 53.8786 123.623C53.7873 123.687 53.7111 123.765 53.6541 123.853C53.585 124.024 53.6414 124.215 53.7976 124.338C53.9559 124.453 54.1481 124.529 54.3534 124.558C54.5944 124.606 54.842 124.627 55.0894 124.618C55.4428 124.597 55.7944 124.557 56.142 124.498C56.925 124.418 57.7008 124.293 58.4642 124.124C59.2297 123.925 59.9768 123.683 60.7239 123.44C60.9937 123.373 61.2392 123.248 61.4379 123.078C61.6856 122.742 61.7373 122.327 61.5778 121.954C61.5047 121.688 61.4112 121.428 61.2981 121.173C61.1877 120.924 61.011 120.65 60.7055 120.603C60.4931 120.586 60.282 120.644 60.1204 120.763L60.0541 120.814Z" fill="#2E2E3F"/>
<path id="Path_7" d="M53.9386 99.7264C54.4392 105.221 55.3169 110.669 56.5646 116.027C56.758 116.855 56.9738 117.71 57.4765 118.377C57.9792 119.044 58.8588 119.465 59.6096 119.157C60.2299 118.846 60.6541 118.215 60.7309 117.491C60.8027 116.78 60.7679 116.06 60.6278 115.36C59.8384 109.596 60.283 103.729 61.0241 97.9509C61.222 96.0787 61.5757 94.2287 62.081 92.4227C62.4387 91.2288 62.922 90.0554 62.9993 88.8034C63.2217 85.1293 59.7997 82.4302 56.526 83.217C53.4939 83.9457 53.7323 89.3028 53.6453 91.8309C53.5785 94.4667 53.6765 97.1043 53.9386 99.7264Z" fill="#2E2E3F"/>
<path id="Path_8" d="M53.9386 99.7264C54.4392 105.221 55.3169 110.669 56.5646 116.027C56.758 116.855 56.9738 117.71 57.4765 118.377C57.9792 119.044 58.8588 119.465 59.6096 119.157C60.2299 118.846 60.6541 118.215 60.7309 117.491C60.8027 116.78 60.7679 116.06 60.6278 115.36C59.8384 109.596 60.283 103.729 61.0241 97.9509C61.222 96.0787 61.5757 94.2287 62.081 92.4227C62.4387 91.2288 62.922 90.0554 62.9993 88.8034C63.2217 85.1293 59.7997 82.4302 56.526 83.217C53.4939 83.9457 53.7323 89.3028 53.6453 91.8309C53.5785 94.4667 53.6765 97.1043 53.9386 99.7264Z" fill="url(#paint1_linear_6175_13151)"/>
<path id="Path_9" d="M74.551 124.029C74.6124 124.191 74.7044 124.338 74.8217 124.463C75.1258 124.746 75.6489 124.614 75.956 124.321C76.2591 124.022 76.4259 123.603 76.4152 123.17C76.3777 122.768 76.2496 122.381 76.0412 122.04C75.8599 121.703 75.6567 121.379 75.4329 121.07C75.3023 120.833 75.0818 120.663 74.8247 120.601C74.2682 120.557 73.6996 121.514 73.736 122.033C73.7604 122.688 74.2865 123.446 74.551 124.029Z" fill="#FFCD90"/>
<path id="Path_10" d="M76.6261 123.329C76.4659 123.244 76.2702 123.257 76.014 123.469C75.8413 123.649 75.6558 123.817 75.4588 123.972C75.1208 124.18 74.6795 124.166 74.3094 124.313C74.0888 124.422 73.8852 124.56 73.7044 124.723C73.0112 125.247 72.3895 125.852 71.8539 126.524C71.498 127.006 70.6688 127.802 71.2631 128.404C71.5514 128.694 72.0425 128.674 72.4482 128.571C72.8657 128.455 73.2736 128.31 73.6688 128.137C74.5941 127.761 75.5158 127.385 76.4126 126.955C76.7599 126.813 77.0744 126.606 77.3378 126.346C77.7474 125.863 77.8672 125.21 77.6545 124.621C77.5488 124.448 77.4222 124.287 77.2773 124.142C77.0602 123.886 76.8894 123.473 76.6261 123.329Z" fill="#2E2E3F"/>
<path id="Path_11" d="M60.5479 86.1343C60.0621 87.855 60.4809 89.6857 60.8494 91.4339C61.8218 96.0416 62.4567 100.718 62.7488 105.423C62.7667 106.159 62.8611 106.892 63.0302 107.608C63.2407 108.279 63.5251 108.923 63.8778 109.528C66.0217 113.55 68.3042 117.489 70.7251 121.346C71.2946 122.254 72.0383 123.259 73.0902 123.28C74.4302 123.311 75.261 121.638 75.0399 120.286C74.8188 118.933 73.9344 117.811 73.2744 116.617C72.2694 114.811 71.7569 112.766 71.2644 110.75C70.772 108.733 70.2595 106.668 70.1188 104.576C69.8173 99.7584 71.509 95.1057 72.5073 90.405C72.7326 89.5408 72.813 88.6436 72.7451 87.7517C72.524 85.9382 71.1438 84.4171 69.4957 83.7289C66.7989 82.6105 61.5328 82.6586 60.5479 86.1343Z" fill="#2E2E3F"/>
<path id="Path_12" d="M60.5479 86.1343C60.0621 87.855 60.4809 89.6857 60.8494 91.4339C61.8218 96.0416 62.4567 100.718 62.7488 105.423C62.7667 106.159 62.8611 106.892 63.0302 107.608C63.2407 108.279 63.5251 108.923 63.8778 109.528C66.0217 113.55 68.3042 117.489 70.7251 121.346C71.2946 122.254 72.0383 123.259 73.0902 123.28C74.4302 123.311 75.261 121.638 75.0399 120.286C74.8188 118.933 73.9344 117.811 73.2744 116.617C72.2694 114.811 71.7569 112.766 71.2644 110.75C70.772 108.733 70.2595 106.668 70.1188 104.576C69.8173 99.7584 71.509 95.1057 72.5073 90.405C72.7326 89.5408 72.813 88.6436 72.7451 87.7517C72.524 85.9382 71.1438 84.4171 69.4957 83.7289C66.7989 82.6105 61.5328 82.6586 60.5479 86.1343Z" fill="url(#paint2_linear_6175_13151)"/>
<path id="Path_13" d="M61.782 59.3286C60.6993 61.02 60.0533 62.9301 59.4179 64.8163C58.9281 66.2685 58.4382 67.7241 58.0797 69.2139C57.4266 71.9236 57.21 74.7255 56.4113 77.3976C55.6801 79.851 54.4555 82.3898 55.2009 84.8398C55.509 85.7672 56.0184 86.6209 56.6953 87.3444C59.6692 90.597 64.3343 91.8917 68.6506 90.6623C69.4697 90.4277 70.2458 90.0714 70.9508 89.6064C72.8179 88.3388 73.8579 86.1895 74.33 84.0436C74.8022 81.8978 74.788 79.6699 74.9974 77.4796C75.3524 73.7483 76.3605 70.0784 76.4173 66.3334C76.4741 62.5884 75.3524 58.5632 72.3245 56.226C68.4625 53.2669 63.9899 55.8843 61.782 59.3286Z" fill="#4765FF"/>
<path id="Path_14" d="M61.782 59.3286C60.6993 61.02 60.0533 62.9301 59.4179 64.8163C58.9281 66.2685 58.4382 67.7241 58.0797 69.2139C57.4266 71.9236 57.21 74.7255 56.4113 77.3976C55.6801 79.851 54.4555 82.3898 55.2009 84.8398C55.509 85.7672 56.0184 86.6209 56.6953 87.3444C59.6692 90.597 64.3343 91.8917 68.6506 90.6623C69.4697 90.4277 70.2458 90.0714 70.9508 89.6064C72.8179 88.3388 73.8579 86.1895 74.33 84.0436C74.8022 81.8978 74.788 79.6699 74.9974 77.4796C75.3524 73.7483 76.3605 70.0784 76.4173 66.3334C76.4741 62.5884 75.3524 58.5632 72.3245 56.226C68.4625 53.2669 63.9899 55.8843 61.782 59.3286Z" fill="url(#paint3_linear_6175_13151)"/>
<path id="Path_15" d="M63.4321 48.0298C63.1305 49.1239 62.8986 50.2742 63.0701 51.4013C63.2416 52.5285 63.8799 53.6325 64.896 54.0457C65.3152 54.2209 65.8042 54.2936 66.0995 54.6473C66.3431 55.0246 66.4385 55.4848 66.3663 55.9331C66.3429 56.3848 66.2974 56.8349 66.2297 57.2817C66.1749 57.5299 66.1641 57.7865 66.198 58.0387C66.308 58.4812 66.6483 58.8214 67.0776 58.9179C67.5007 59.0091 67.9409 58.951 68.3287 58.7527C69.4973 58.2139 70.234 56.9545 70.5515 55.6654C70.8691 54.3762 70.8469 53.021 70.9485 51.6988C71.0362 50.9544 71.0701 50.2041 71.0501 49.4544C70.9301 47.8035 70.1168 46.2918 68.8273 45.3226C67.9127 44.6384 65.9408 43.769 64.8484 44.4929C64.4642 44.7474 64.3244 45.2168 64.1815 45.6399C63.9116 46.4299 63.6512 47.2298 63.4321 48.0298Z" fill="#F3C091"/>
<path id="Path_16" d="M65.6755 38.8918C65.1187 39.0461 64.6763 39.4697 64.4973 40.0198C64.3269 40.5653 64.3055 41.1466 64.4353 41.7032C64.6695 42.9306 65.28 44.0544 66.1819 44.9182C66.7435 45.4528 67.4153 45.8909 67.808 46.5532C68.0407 46.9801 68.186 47.4492 68.2352 47.9331C68.2559 48.0814 68.2869 48.2539 68.4212 48.3229C68.5556 48.3919 68.7657 48.2677 68.9104 48.14C69.1792 47.8813 69.5202 47.6088 69.882 47.702C70.2437 47.7951 70.4401 48.2953 70.4401 48.7092C70.4817 49.203 70.2653 49.6831 69.8682 49.9787C69.7441 50.0546 69.5822 50.1166 69.5443 50.2546C69.4858 50.4581 69.7131 50.5996 69.8337 50.7859C69.9553 51.0268 70.0089 51.2963 69.9887 51.5655C69.97 51.8363 70.1026 52.0953 70.3333 52.2381C70.5404 52.2916 70.7606 52.2457 70.9293 52.1139C71.6183 51.6896 71.9834 50.9169 72.5657 50.365C72.9412 50.0201 73.4028 49.7441 73.7955 49.4026C74.6488 48.6767 75.1204 47.5975 75.0737 46.4774C75.0056 45.3516 74.3291 44.3528 73.3098 43.8729C72.7586 43.6315 72.135 43.5694 71.6217 43.2624C70.912 42.8381 70.54 42.0412 70.1162 41.3341C69.7119 40.5578 68.9965 39.9907 68.1491 39.7749C67.274 39.5472 66.6436 38.6848 65.6755 38.8918Z" fill="#452D21"/>
<path id="Path_17" d="M74.0333 58.96C74.0333 58.96 78.4389 65.0464 79.8669 77.6823C81.2949 90.3182 79.6012 94.4405 79.6012 94.4405C79.6012 94.4405 76.5595 96.1119 75.8487 94.2873C75.1379 92.4628 74.9746 75.8645 72.3268 72.2767C69.6789 68.6888 71.616 59.7327 74.0333 58.96Z" fill="#4765FF"/>
<path id="Path_18" d="M74.0333 58.96C74.0333 58.96 78.4389 65.0464 79.8669 77.6823C81.2949 90.3182 79.6012 94.4405 79.6012 94.4405C79.6012 94.4405 76.5595 96.1119 75.8487 94.2873C75.1379 92.4628 74.9746 75.8645 72.3268 72.2767C69.6789 68.6888 71.616 59.7327 74.0333 58.96Z" fill="url(#paint4_linear_6175_13151)"/>
<path id="Path_19" d="M75.1361 96.6824C75.05 96.9349 75.0301 97.3119 75.2886 97.3557C75.547 97.3994 75.7657 97.1604 75.9082 97.3254C75.9486 97.3832 75.9684 97.4532 75.9645 97.524C76.0055 98.2454 75.8701 98.966 75.5702 99.6213C75.4638 99.7863 75.4191 99.9846 75.4443 100.18C75.5404 100.517 76.0175 100.554 76.3522 100.446C77.5617 100.066 78.4365 98.9379 78.8109 97.7091C79.1853 96.4804 79.1422 95.1641 78.9832 93.8882C78.9761 93.4811 78.8336 93.0884 78.5789 92.7739C77.9825 92.1848 76.899 92.4911 76.5245 93.1442C75.9148 94.2114 75.5338 95.521 75.1361 96.6824Z" fill="#F3C091"/>
<path id="Oval_2" d="M16.0863 38.8601C23.4905 38.8601 29.4929 32.8607 29.4929 25.4601C29.4929 18.0594 23.4905 12.0601 16.0863 12.0601C8.68202 12.0601 2.67969 18.0594 2.67969 25.4601C2.67969 32.8607 8.68202 38.8601 16.0863 38.8601Z" fill="#4765FF"/>
<path id="Oval_3" d="M61.6722 26.8C69.0765 26.8 75.0788 20.8006 75.0788 13.4C75.0788 5.99938 69.0765 0 61.6722 0C54.268 0 48.2656 5.99938 48.2656 13.4C48.2656 20.8006 54.268 26.8 61.6722 26.8Z" fill="#4765FF"/>
<path id="Oval_4" d="M108.594 54.94C115.998 54.94 122.001 48.9406 122.001 41.54C122.001 34.1394 115.998 28.14 108.594 28.14C101.19 28.14 95.1875 34.1394 95.1875 41.54C95.1875 48.9406 101.19 54.94 108.594 54.94Z" fill="#4765FF"/>
<path id="Oval_5" d="M13.4066 97.82C20.8109 97.82 26.8132 91.8206 26.8132 84.42C26.8132 77.0194 20.8109 71.02 13.4066 71.02C6.00234 71.02 0 77.0194 0 84.42C0 91.8206 6.00234 97.82 13.4066 97.82Z" fill="#4765FF"/>
<path id="Oval_6" d="M107.254 103.18C114.659 103.18 120.661 97.1806 120.661 89.78C120.661 82.3794 114.659 76.38 107.254 76.38C99.85 76.38 93.8477 82.3794 93.8477 89.78C93.8477 97.1806 99.85 103.18 107.254 103.18Z" fill="#4765FF"/>
<path id="Shape" d="M13.4044 93.8C10.2233 93.7813 7.2658 92.1637 5.53756 89.4974C3.80931 86.831 3.54297 83.4748 4.82912 80.57C4.8803 80.4331 4.94453 80.3013 5.02093 80.1766C5.50701 79.5242 5.72417 78.7106 5.62772 77.9032C5.41499 75.8142 7.73755 74.4216 9.65208 75.3477C9.96799 75.4948 10.3246 75.5304 10.6634 75.4486C13.3474 74.6301 16.2574 75.0543 18.595 76.6047C20.9325 78.1551 22.452 80.6689 22.7365 83.4563C23.2756 88.3551 19.8775 92.8173 15.0051 93.6086C14.475 93.7234 13.938 93.7409 13.4044 93.8ZM14.1019 89.1138C13.9938 90.1896 13.7532 91.1506 12.5954 91.6554C12.3861 91.7459 12.3164 92.397 12.3757 92.759C12.4036 92.9331 12.8778 93.142 13.1533 93.1525C13.7606 93.1765 14.3686 93.1345 14.9667 93.0271C17.4981 92.5863 19.7008 91.0419 20.9754 88.8144L19.9292 88.3479C19.3433 89.2357 18.7854 90.0608 18.2413 90.8999C17.917 91.3978 17.6311 91.3769 17.3102 90.8999C16.9894 90.4229 16.6128 89.8554 16.2047 89.2914C15.9746 89.5664 15.8002 89.7962 15.6119 90.0086C15.1551 90.5204 14.6564 90.4821 14.3251 89.8833C14.222 89.6405 14.1415 89.3887 14.0845 89.1312C13.9853 88.5666 13.9155 87.9972 13.8752 87.4253C13.8752 86.8647 13.6311 86.5131 13.0941 86.4574C12.4001 86.3717 11.6997 86.3496 11.0017 86.3912C9.99384 86.4783 9.31032 86.1371 9.05575 85.2702C8.80118 84.4033 9.11852 83.9715 10.1577 83.4598C11.1031 83.0287 11.9901 82.48 12.7976 81.8269C13.6276 81.1132 13.6067 80.5074 12.9267 79.6544C12.0269 78.5264 11.8491 77.3461 12.4663 76.044C12.4976 75.9302 12.5175 75.8136 12.5256 75.6958L10.5937 76.1206C11.331 77.0349 11.4012 78.3172 10.768 79.3062C10.1891 80.3507 9.55444 81.3638 8.9058 82.3665C8.48383 83.0141 8.29552 83.0037 7.8596 82.3665C7.26327 81.4961 6.69484 80.6049 6.06363 79.6405C5.85788 80.0408 5.58587 80.3368 5.54751 80.6849C5.3313 82.5963 5.34525 84.546 6.2659 86.2555C7.4202 88.4036 8.47686 88.5777 10.2589 87.7978C10.4367 87.7212 10.625 87.6655 10.8029 87.5854C12.1141 87.0249 13.0522 87.3591 13.7183 88.6125C13.8298 88.787 13.9521 88.9544 14.0845 89.1138H14.1019ZM21.2439 88.2156C21.8714 87.0367 22.1961 85.7208 22.1891 84.3859C22.1681 83.1708 21.6659 82.3874 20.4907 82.0323C19.9536 81.8687 19.3364 81.9905 18.747 81.9105C17.9365 81.8373 17.1365 81.675 16.3617 81.4265C15.5212 81.0784 15.1586 80.0687 15.3573 79.1252C15.5701 78.1121 16.0164 77.7709 17.1393 77.6386C17.5483 77.5374 17.9447 77.3915 18.3215 77.2034C16.946 76.243 15.313 75.7178 13.6346 75.6958C13.4777 75.6958 13.258 75.8908 13.1673 76.044C12.5233 77.0409 12.6216 78.3437 13.4079 79.2331C14.3111 80.3855 14.2797 81.3673 13.1673 82.3178C12.3373 83.0141 11.3016 83.5155 10.3216 84.0412C9.91014 84.264 9.47772 84.3893 9.62418 84.9708C9.66113 85.2284 9.80303 85.4593 10.0163 85.609C10.2296 85.7586 10.4953 85.8136 10.7506 85.7611C11.4524 85.6758 12.162 85.6758 12.8639 85.7611C14.1821 85.9561 14.4611 86.3982 14.496 87.7351C14.5597 88.4249 14.6681 89.1099 14.8203 89.7858C15.9153 88.8109 15.9118 88.8109 15.4062 87.7734C15.312 87.575 15.2213 87.3731 15.1481 87.1676C14.6463 85.7956 15.3168 84.2726 16.6686 83.7139C18.0395 83.1415 19.6203 83.7274 20.2849 85.0543C20.7417 85.963 20.5848 86.8404 20.2012 87.7386L21.2439 88.2156ZM11.6538 92.9366C11.5771 92.0488 11.7061 91.3246 12.5326 90.886C13.3591 90.4473 13.5474 89.7196 13.1324 88.8562C12.7174 87.9928 11.9851 87.7177 11.1447 88.0728C10.7959 88.226 10.4298 88.3827 10.0636 88.515C8.46639 89.0964 7.24583 88.7901 6.2659 87.4079C5.81582 86.7219 5.4637 85.9766 5.2197 85.1936C5.03416 84.5151 4.89895 83.8239 4.81517 83.1255C3.92591 87.0806 6.81341 92.0801 11.6538 92.9366ZM18.89 77.6177C18.2832 77.8579 17.7671 78.1991 17.2265 78.2409C16.4523 78.3035 16.0548 78.6204 15.9397 79.3515C15.7958 80.0754 16.2122 80.7936 16.9127 81.0296C17.3888 81.2137 17.8947 81.3093 18.4052 81.3116C19.5595 81.2141 20.679 81.155 21.6938 81.9105C21.2597 80.2077 20.274 78.696 18.89 77.6107V77.6177ZM17.6345 90.3776L17.931 90.4264C18.5726 89.2322 19.2317 88.0485 19.8385 86.8369C19.9531 86.5419 19.9774 86.2196 19.9083 85.9108C19.7773 85.0656 19.138 84.3886 18.3006 84.2083C17.5305 83.9692 16.692 84.2149 16.1734 84.8315C15.5499 85.432 15.407 86.3751 15.8246 87.1328C16.3617 88.2295 17.0208 89.2914 17.6345 90.3707V90.3776ZM8.25018 81.9383H8.52917C9.14293 80.8346 9.80204 79.7554 10.3495 78.6238C10.7864 77.7278 10.4965 76.6474 9.66952 76.0893C8.87203 75.5089 7.78456 75.5317 7.01218 76.145C6.20214 76.7302 5.94776 77.8218 6.41585 78.7039C6.97382 79.7971 7.64339 80.8625 8.25018 81.9383Z" fill="white"/>
<path id="Shape_2" d="M17.4299 85.7224C17.4727 84.9685 18.111 84.3889 18.8628 84.4213C19.5843 84.4663 20.1381 85.0811 20.11 85.8061C20.1059 86.1691 19.9518 86.5141 19.6844 86.7587C19.417 87.0032 19.0604 87.1253 18.6998 87.0957C17.9783 87.053 17.4185 86.4475 17.4299 85.7224ZM18.8021 84.8094C18.4837 85.2621 18.1539 85.5246 18.1804 85.749C18.207 85.9735 18.5595 86.2017 18.7718 86.4261C18.9955 86.2131 19.3632 86.0191 19.4011 85.7756C19.439 85.5322 19.1092 85.2735 18.8021 84.8094Z" fill="white"/>
<path id="Shape_3" d="M9.40798 79.06C8.6869 79.0406 8.09734 78.4783 8.04316 77.7582C8.03708 77.3976 8.17491 77.0494 8.42611 76.7908C8.67731 76.5322 9.02114 76.3846 9.38144 76.3806C9.72993 76.3704 10.068 76.5003 10.3202 76.7413C10.5723 76.9823 10.7176 77.3144 10.7235 77.6634C10.7358 78.0237 10.6037 78.3739 10.3566 78.6362C10.1095 78.8985 9.76799 79.0511 9.40798 79.06ZM9.43072 76.7487C9.10847 77.1852 8.77485 77.4432 8.79381 77.6747C8.81277 77.9063 9.17292 78.3048 9.37386 78.3048C9.6766 78.2373 9.92148 78.0152 10.0184 77.7203C10.0525 77.4926 9.7416 77.2117 9.43072 76.7601V76.7487Z" fill="white"/>
</g>
</g>
</g>
</g>
</g>
</g>
<defs>
<linearGradient id="paint0_linear_6175_13151" x1="2126.68" y1="1447.3" x2="1089.03" y2="702.727" gradientUnits="userSpaceOnUse">
<stop offset="0.01"/>
<stop offset="0.13" stop-opacity="0.69"/>
<stop offset="1" stop-opacity="0"/>
</linearGradient>
<linearGradient id="paint1_linear_6175_13151" x1="548.24" y1="1927.32" x2="484.584" y2="1921.23" gradientUnits="userSpaceOnUse">
<stop offset="0.01"/>
<stop offset="0.13" stop-opacity="0.69"/>
<stop offset="1" stop-opacity="0"/>
</linearGradient>
<linearGradient id="paint2_linear_6175_13151" x1="854.101" y1="2064.77" x2="687.135" y2="2083" gradientUnits="userSpaceOnUse">
<stop offset="0.01"/>
<stop offset="0.13" stop-opacity="0.69"/>
<stop offset="1" stop-opacity="0"/>
</linearGradient>
<linearGradient id="paint3_linear_6175_13151" x1="1570.62" y1="1970.97" x2="889.398" y2="1907.27" gradientUnits="userSpaceOnUse">
<stop offset="0.01"/>
<stop offset="0.13" stop-opacity="0.69"/>
<stop offset="1" stop-opacity="0"/>
</linearGradient>
<linearGradient id="paint4_linear_6175_13151" x1="582.934" y1="1753.16" x2="459.528" y2="1775.63" gradientUnits="userSpaceOnUse">
<stop offset="0.01"/>
<stop offset="0.13" stop-opacity="0.69"/>
<stop offset="1" stop-opacity="0"/>
</linearGradient>
</defs>
</svg>
