<svg width="13" height="15" viewBox="0 0 13 15" fill="none" xmlns="http://www.w3.org/2000/svg">
<path id="Vector" d="M6.25224 0C4.68992 0.00184311 3.19212 0.623288 2.08739 1.72801C0.982669 2.83274 0.361224 4.33054 0.359381 5.89286C0.35751 7.16958 0.774549 8.41167 1.54652 9.42857C1.54652 9.42857 1.70724 9.64018 1.73349 9.67071L6.25224 15L10.7731 9.66804C10.7967 9.63964 10.958 9.42857 10.958 9.42857L10.9585 9.42696C11.7301 8.41051 12.1469 7.169 12.1451 5.89286C12.1433 4.33054 11.5218 2.83274 10.4171 1.72801C9.31236 0.623288 7.81456 0.00184311 6.25224 0ZM6.25224 8.03571C5.82842 8.03571 5.41412 7.91004 5.06173 7.67458C4.70934 7.43912 4.43468 7.10445 4.2725 6.71289C4.11031 6.32134 4.06787 5.89048 4.15056 5.47481C4.23324 5.05913 4.43733 4.67731 4.73701 4.37763C5.03669 4.07794 5.41851 3.87386 5.83419 3.79117C6.24986 3.70849 6.68072 3.75093 7.07227 3.91312C7.46383 4.0753 7.7985 4.34996 8.03396 4.70235C8.26942 5.05474 8.39509 5.46904 8.39509 5.89286C8.39439 6.46096 8.16839 7.00559 7.76668 7.4073C7.36497 7.80901 6.82034 8.03501 6.25224 8.03571Z" fill="white"/>
</svg>
