<svg width="11" height="14" viewBox="0 0 11 14" fill="none" xmlns="http://www.w3.org/2000/svg">
<path id="Vector" d="M10.3603 3.47577V1.07692C10.3603 0.791305 10.2468 0.517386 10.0449 0.315423C9.84289 0.113461 9.56897 0 9.28335 0H1.74489C1.45927 0 1.18535 0.113461 0.983392 0.315423C0.78143 0.517386 0.667969 0.791305 0.667969 1.07692V3.5C0.668333 3.66712 0.707418 3.83189 0.782157 3.98137C0.856897 4.13085 0.965258 4.26097 1.09874 4.36154L4.61691 7L1.09874 9.63846C0.965258 9.73903 0.856897 9.86915 0.782157 10.0186C0.707418 10.1681 0.668333 10.3329 0.667969 10.5V12.9231C0.667969 13.2087 0.78143 13.4826 0.983392 13.6846C1.18535 13.8865 1.45927 14 1.74489 14H9.28335C9.56897 14 9.84289 13.8865 10.0449 13.6846C10.2468 13.4826 10.3603 13.2087 10.3603 12.9231V10.5242C10.3599 10.3578 10.3211 10.1936 10.247 10.0445C10.1729 9.89546 10.0654 9.76549 9.93287 9.66471L6.4073 7L9.93287 4.33462C10.0654 4.23405 10.173 4.10421 10.2471 3.95524C10.3213 3.80626 10.36 3.64217 10.3603 3.47577ZM9.28335 12.9231H1.74489V10.5L5.51412 7.67308L9.28335 10.5236V12.9231ZM9.28335 3.47577L5.51412 6.32692L1.74489 3.5V1.07692H9.28335V3.47577Z" fill="white"/>
</svg>
