<svg width="14" height="17" viewBox="0 0 14 17" fill="none" xmlns="http://www.w3.org/2000/svg">
<path id="Vector" d="M5.16667 1H1.5C1.36739 1 1.24021 1.05268 1.14645 1.14645C1.05268 1.24021 1 1.36739 1 1.5V15.5C1 15.6326 1.05268 15.7598 1.14645 15.8536C1.24021 15.9473 1.36739 16 1.5 16H5.16667M6 4.33333H7.66667M6 8.5H7.66667M6 12.6667H7.66667M8.5 1H12.1667C12.2993 1 12.4265 1.05268 12.5202 1.14645C12.614 1.24021 12.6667 1.36739 12.6667 1.5V15.5C12.6667 15.6326 12.614 15.7598 12.5202 15.8536C12.4265 15.9473 12.2993 16 12.1667 16H8.5" stroke="white" stroke-width="1.5" stroke-linecap="round" stroke-linejoin="round"/>
</svg>
