<svg width="430" height="932" viewBox="0 0 430 932" fill="none" xmlns="http://www.w3.org/2000/svg">
<g clip-path="url(#clip0_5916_12327)">
<rect width="430" height="932" fill="white"/>
<g opacity="0.5" filter="url(#filter0_f_5916_12327)">
<path fill-rule="evenodd" clip-rule="evenodd" d="M352.854 -77.1579C397.045 -71.835 436.168 -61.2313 476.529 -42.4651C554.991 -5.98314 669.93 -2.05945 693.458 81.2095C717.137 165.018 647.604 255.84 573.939 302.295C509.112 343.178 425.259 321.138 352.854 296.007C303.132 278.749 279.878 228.388 245.699 188.365C216.1 153.705 177.946 125.984 169.422 81.2095C159.075 26.8597 153.428 -40.1837 195.305 -76.3392C236.63 -112.017 298.651 -83.6868 352.854 -77.1579Z" fill="url(#paint0_linear_5916_12327)"/>
</g>
<g opacity="0.5" filter="url(#filter1_f_5916_12327)">
<path fill-rule="evenodd" clip-rule="evenodd" d="M-18.8154 -269.451C46.5086 -250.307 63.7983 -169.865 117.405 -127.912C187.717 -72.8869 325.331 -80.3221 336.106 8.30841C346.604 94.6556 225.663 131.357 155.112 182.236C101.064 221.214 46.8625 253.003 -18.8154 264.269C-102.886 278.69 -202.571 312.633 -264.767 254.26C-327.28 195.591 -290.988 94.038 -291.544 8.30841C-292.106 -78.4149 -328.737 -178.971 -267.976 -240.853C-207.088 -302.864 -102.214 -293.892 -18.8154 -269.451Z" fill="#9024FF"/>
</g>
</g>
<defs>
<filter id="filter0_f_5916_12327" x="-38" y="-294" width="936.172" height="818.981" filterUnits="userSpaceOnUse" color-interpolation-filters="sRGB">
<feFlood flood-opacity="0" result="BackgroundImageFix"/>
<feBlend mode="normal" in="SourceGraphic" in2="BackgroundImageFix" result="shape"/>
<feGaussianBlur stdDeviation="100" result="effect1_foregroundBlur_5916_12327"/>
</filter>
<filter id="filter1_f_5916_12327" x="-503" y="-488" width="1039.75" height="975.247" filterUnits="userSpaceOnUse" color-interpolation-filters="sRGB">
<feFlood flood-opacity="0" result="BackgroundImageFix"/>
<feBlend mode="normal" in="SourceGraphic" in2="BackgroundImageFix" result="shape"/>
<feGaussianBlur stdDeviation="100" result="effect1_foregroundBlur_5916_12327"/>
</filter>
<linearGradient id="paint0_linear_5916_12327" x1="430.085" y1="-94" x2="430.085" y2="324.981" gradientUnits="userSpaceOnUse">
<stop stop-color="#FF5388"/>
<stop offset="1" stop-color="#FC5D48"/>
</linearGradient>
<clipPath id="clip0_5916_12327">
<rect width="430" height="932" fill="white"/>
</clipPath>
</defs>
</svg>
