<svg width="28" height="31" viewBox="0 0 28 31" fill="none" xmlns="http://www.w3.org/2000/svg">
<path id="Vector" opacity="0.9" d="M6.01533 8.57692C6.01533 10.7191 6.86628 12.7735 8.381 14.2882C9.89572 15.8029 11.9501 16.6538 14.0922 16.6538C16.2344 16.6538 18.2888 15.8029 19.8035 14.2882C21.3182 12.7735 22.1692 10.7191 22.1692 8.57692C22.1692 6.43479 21.3182 4.38039 19.8035 2.86568C18.2888 1.35096 16.2344 0.5 14.0922 0.5C11.9501 0.5 9.89572 1.35096 8.381 2.86568C6.86628 4.38039 6.01533 6.43479 6.01533 8.57692ZM25.6307 30.5H1.39994C1.09392 30.5 0.800436 30.3784 0.584048 30.162C0.36766 29.9457 0.246094 29.6522 0.246094 29.3462V25.8846C0.246094 24.3545 0.853922 22.8871 1.93586 21.8052C3.0178 20.7232 4.48523 20.1154 6.01533 20.1154H22.1692C23.6993 20.1154 25.1667 20.7232 26.2486 21.8052C27.3306 22.8871 27.9384 24.3545 27.9384 25.8846V29.3462C27.9384 29.6522 27.8168 29.9457 27.6005 30.162C27.3841 30.3784 27.0906 30.5 26.7846 30.5H25.6307Z" fill="url(#paint0_linear_5916_14075)"/>
<defs>
<linearGradient id="paint0_linear_5916_14075" x1="0.246094" y1="18.9884" x2="27.9385" y2="18.9972" gradientUnits="userSpaceOnUse">
<stop stop-color="#CF4CAA"/>
<stop offset="1" stop-color="#A250E4"/>
</linearGradient>
</defs>
</svg>
