<svg width="30" height="31" viewBox="0 0 30 31" fill="none" xmlns="http://www.w3.org/2000/svg">
<g id="nimbus:marketing">
<rect y="0.5" width="30" height="30" rx="4" fill="#ECECEC"/>
<path id="Vector" d="M22 10.6429V9.57143H20.3929V8.5H19.3214V9.57143H18.7857C18.1948 9.57143 17.7143 10.0525 17.7143 10.6429V11.7143C17.7143 12.3052 18.1948 12.7857 18.7857 12.7857H20.9286V13.8571H17.7143V14.9286H19.3214V16H20.3929V14.9286H20.9286C21.5195 14.9286 22 14.448 22 13.8571V12.7857C22 12.1954 21.5195 11.7143 20.9286 11.7143H18.7857V10.6429H22ZM18.7857 18.1429V19.2143H20.1711L18.25 21.1354L17.0221 19.907C16.9218 19.8066 16.7858 19.7502 16.6439 19.75H16.6429C16.5726 19.75 16.503 19.7639 16.4381 19.7908C16.3732 19.8177 16.3143 19.8572 16.2646 19.907L13.4286 22.7425L14.1861 23.5L16.6434 21.0432L17.8712 22.2716C17.9717 22.372 18.1079 22.4285 18.25 22.4285C18.3921 22.4285 18.5283 22.372 18.6287 22.2716L20.9286 19.9718V21.3571H22V18.1429H18.7857ZM8.07143 23.5H7V20.8214C7 18.7536 8.68214 17.0714 10.75 17.0714H13.9643C15.0298 17.0714 16.0482 17.5268 16.7591 18.3212L15.9609 19.0359C15.7095 18.7552 15.4017 18.5305 15.0577 18.3767C14.7137 18.2228 14.3411 18.1431 13.9643 18.1429H10.75C9.27304 18.1429 8.07143 19.3445 8.07143 20.8214V23.5ZM12.3571 16C13.3517 16 14.3055 15.6049 15.0088 14.9016C15.7121 14.1984 16.1071 13.2446 16.1071 12.25C16.1071 11.2554 15.7121 10.3016 15.0088 9.59835C14.3055 8.89509 13.3517 8.5 12.3571 8.5C11.3626 8.5 10.4088 8.89509 9.70549 9.59835C9.00223 10.3016 8.60714 11.2554 8.60714 12.25C8.60714 13.2446 9.00223 14.1984 9.70549 14.9016C10.4088 15.6049 11.3626 16 12.3571 16ZM12.3571 9.57143C13.0675 9.57143 13.7488 9.85363 14.2512 10.356C14.7535 10.8583 15.0357 11.5396 15.0357 12.25C15.0357 12.9604 14.7535 13.6417 14.2512 14.144C13.7488 14.6464 13.0675 14.9286 12.3571 14.9286C11.6467 14.9286 10.9654 14.6464 10.4631 14.144C9.96078 13.6417 9.67857 12.9604 9.67857 12.25C9.67857 11.5396 9.96078 10.8583 10.4631 10.356C10.9654 9.85363 11.6467 9.57143 12.3571 9.57143Z" fill="#9024FF"/>
</g>
</svg>
