<svg width="20" height="28" viewBox="0 0 20 28" fill="none" xmlns="http://www.w3.org/2000/svg">
<path id="Vector" d="M15.7369 7.06597V4.61866C15.7369 4.18595 15.565 3.77096 15.2591 3.46499C14.9531 3.15901 14.5381 2.98712 14.1054 2.98712C13.6727 2.98712 13.2577 3.15901 12.9517 3.46499C12.6457 3.77096 12.4738 4.18595 12.4738 4.61866V2.98712C12.4738 2.55441 12.302 2.13942 11.996 1.83345C11.69 1.52748 11.275 1.35558 10.8423 1.35558C10.4096 1.35558 9.99461 1.52748 9.68864 1.83345C9.38267 2.13942 9.21077 2.55441 9.21077 2.98712V5.43443C9.21077 5.00172 9.03888 4.58673 8.73291 4.28076C8.42693 3.97478 8.01195 3.80289 7.57924 3.80289C7.14653 3.80289 6.73154 3.97478 6.42557 4.28076C6.11959 4.58673 5.9477 5.00172 5.9477 5.43443V15.2237L5.08788 13.0765C4.8712 12.5341 4.47139 12.0847 3.95786 11.8063C3.44433 11.5279 2.84953 11.4382 2.27674 11.5527C2.03731 11.6007 1.81216 11.7032 1.61877 11.8523C1.42539 12.0015 1.26897 12.1931 1.16166 12.4125C1.05435 12.6318 0.999036 12.873 1.00001 13.1172C1.00099 13.3614 1.05823 13.602 1.16729 13.8205L4.31616 20.1183L4.36511 20.3141C5.29508 24.034 8.63974 26.6444 12.4738 26.6444C14.2047 26.6444 15.8646 25.9568 17.0885 24.733C18.3124 23.5091 19 21.8491 19 20.1183V7.06597C19 6.63325 18.8281 6.21827 18.5221 5.91229C18.2162 5.60632 17.8012 5.43443 17.3685 5.43443C16.9358 5.43443 16.5208 5.60632 16.2148 5.91229C15.9088 6.21827 15.7369 6.63325 15.7369 7.06597ZM15.7369 7.06597V13.5921M9.21077 3.80289V13.5921M12.4738 3.80289V11.9606" stroke="#282A2E" stroke-linecap="round" stroke-linejoin="round"/>
</svg>
