<svg width="60" height="60" viewBox="0 0 60 60" fill="none" xmlns="http://www.w3.org/2000/svg">
<g id="Frame 396" filter="url(#filter0_b_5916_14049)">
<rect width="60" height="60" rx="30" fill="url(#paint0_radial_5916_14049)" fill-opacity="0.5"/>
<path id="Vector" d="M23.261 20.5158C22.904 20.1763 22.4319 19.9915 21.944 20.0003C21.4561 20.0091 20.9906 20.2108 20.6455 20.5629C20.3005 20.915 20.1029 21.3901 20.0942 21.888C20.0856 22.3859 20.2667 22.8677 20.5994 23.2321L27.4293 30.2021L20.5994 37.1721C20.4144 37.348 20.266 37.5602 20.163 37.7959C20.0601 38.0317 20.0048 38.2862 20.0003 38.5442C19.9958 38.8023 20.0423 39.0586 20.1371 39.2979C20.2318 39.5372 20.3728 39.7546 20.5516 39.9371C20.7304 40.1196 20.9434 40.2635 21.1779 40.3601C21.4124 40.4568 21.6636 40.5043 21.9165 40.4997C22.1693 40.4951 22.4187 40.4387 22.6497 40.3336C22.8807 40.2286 23.0886 40.0771 23.261 39.8883L30.0909 32.9183L36.9208 39.8883C37.0933 40.0771 37.3012 40.2286 37.5322 40.3336C37.7632 40.4387 38.0126 40.4951 38.2654 40.4997C38.5183 40.5043 38.7695 40.4568 39.004 40.3601C39.2385 40.2635 39.4515 40.1196 39.6303 39.9371C39.8091 39.7546 39.9501 39.5372 40.0448 39.2979C40.1395 39.0586 40.1861 38.8023 40.1816 38.5442C40.1771 38.2862 40.1218 38.0317 40.0189 37.7959C39.9159 37.5602 39.7675 37.348 39.5825 37.1721L32.7526 30.2021L39.5825 23.2321C39.9152 22.8677 40.0963 22.3859 40.0876 21.888C40.079 21.3901 39.8814 20.915 39.5364 20.5629C39.1913 20.2108 38.7258 20.0091 38.2379 20.0003C37.75 19.9915 37.2778 20.1763 36.9208 20.5158L30.0909 27.4858L23.261 20.5158Z" fill="white"/>
</g>
<defs>
<filter id="filter0_b_5916_14049" x="-32" y="-32" width="124" height="124" filterUnits="userSpaceOnUse" color-interpolation-filters="sRGB">
<feFlood flood-opacity="0" result="BackgroundImageFix"/>
<feGaussianBlur in="BackgroundImageFix" stdDeviation="16"/>
<feComposite in2="SourceAlpha" operator="in" result="effect1_backgroundBlur_5916_14049"/>
<feBlend mode="normal" in="SourceGraphic" in2="effect1_backgroundBlur_5916_14049" result="shape"/>
</filter>
<radialGradient id="paint0_radial_5916_14049" cx="0" cy="0" r="1" gradientUnits="userSpaceOnUse" gradientTransform="translate(41.5 22.5) rotate(144.137) scale(51.2079)">
<stop offset="0.9999" stop-color="#D34646"/>
<stop offset="1" stop-color="white" stop-opacity="0.5"/>
</radialGradient>
</defs>
</svg>
