<svg width="30" height="31" viewBox="0 0 30 31" fill="none" xmlns="http://www.w3.org/2000/svg">
<g id="nimbus:marketing">
<rect y="0.5" width="30" height="30" rx="4" fill="#ECECEC"/>
<path id="Vector" d="M16.5293 18.5625C16.07 18.2194 15.5747 17.9565 15.0435 17.7739C14.5122 17.5913 13.9561 17.5 13.375 17.5C12.888 17.5 12.4176 17.5636 11.9639 17.6909C11.5101 17.8182 11.0868 17.9953 10.6938 18.2222C10.3009 18.4491 9.94401 18.7257 9.62305 19.0522C9.30208 19.3787 9.02539 19.7384 8.79297 20.1313C8.56055 20.5243 8.3807 20.9476 8.25342 21.4014C8.12614 21.8551 8.0625 22.3255 8.0625 22.8125H7C7 22.1484 7.09684 21.5093 7.29053 20.895C7.48421 20.2808 7.76367 19.7135 8.12891 19.1934C8.49414 18.6732 8.92578 18.2111 9.42383 17.8071C9.92188 17.4032 10.4863 17.085 11.1172 16.8525C10.8073 16.6589 10.5306 16.432 10.2871 16.1719C10.0436 15.9118 9.83333 15.624 9.65625 15.3086C9.47917 14.9932 9.34912 14.6639 9.26611 14.3208C9.18311 13.9777 9.13607 13.6208 9.125 13.25C9.125 12.6634 9.23568 12.1128 9.45703 11.5981C9.67839 11.0835 9.98275 10.6353 10.3701 10.2534C10.7575 9.87158 11.2085 9.56722 11.7231 9.34033C12.2378 9.11344 12.7884 9 13.375 9C13.9616 9 14.5122 9.11068 15.0269 9.33203C15.5415 9.55339 15.9897 9.85775 16.3716 10.2451C16.7534 10.6325 17.0578 11.0835 17.2847 11.5981C17.5116 12.1128 17.625 12.6634 17.625 13.25C17.625 13.6152 17.5807 13.9722 17.4922 14.3208C17.4036 14.6694 17.2708 14.9987 17.0938 15.3086C16.9167 15.6185 16.7064 15.9035 16.4629 16.1636C16.2194 16.4237 15.9399 16.6533 15.6245 16.8525C15.9565 16.9798 16.2692 17.1292 16.5625 17.3008V18.5625H16.5293ZM10.1875 13.25C10.1875 13.6927 10.2705 14.105 10.4365 14.4868C10.6025 14.8687 10.8294 15.2062 11.1172 15.4995C11.4049 15.7928 11.7425 16.0225 12.1299 16.1885C12.5173 16.3545 12.9323 16.4375 13.375 16.4375C13.8122 16.4375 14.2244 16.3545 14.6118 16.1885C14.9992 16.0225 15.3368 15.7956 15.6245 15.5078C15.9123 15.2201 16.1419 14.8825 16.3135 14.4951C16.485 14.1077 16.568 13.6927 16.5625 13.25C16.5625 12.8128 16.4795 12.4006 16.3135 12.0132C16.1475 11.6258 15.9206 11.2882 15.6328 11.0005C15.3451 10.7127 15.0047 10.4831 14.6118 10.3115C14.2189 10.14 13.8066 10.057 13.375 10.0625C12.9323 10.0625 12.52 10.1455 12.1382 10.3115C11.7563 10.4775 11.4188 10.7044 11.1255 10.9922C10.8322 11.2799 10.6025 11.6203 10.4365 12.0132C10.2705 12.4061 10.1875 12.8184 10.1875 13.25ZM24 19.625V26H15.5V19.625H17.625V17.5H21.875V19.625H24ZM18.6875 19.625H20.8125V18.5625H18.6875V19.625ZM22.9375 22.8125H21.875V23.875H20.8125V22.8125H18.6875V23.875H17.625V22.8125H16.5625V24.9375H22.9375V22.8125ZM22.9375 20.6875H16.5625V21.75H22.9375V20.6875Z" fill="#9024FF"/>
</g>
</svg>
