<svg width="18" height="20" viewBox="0 0 18 20" fill="none" xmlns="http://www.w3.org/2000/svg">
<g id="Appointment icon">
<path id="Calendar icon" d="M15.4835 2.86865H13.532V1.44355C13.532 1.17837 13.3004 0.925338 13.0285 0.937484C12.8957 0.939824 12.7689 0.993893 12.675 1.0883C12.5811 1.1827 12.5273 1.31007 12.525 1.44355V2.86865H5.47603V1.44355C5.47603 1.17837 5.24442 0.925338 4.97253 0.937484C4.83972 0.939824 4.71301 0.993893 4.61908 1.0883C4.52516 1.1827 4.47136 1.31007 4.46903 1.44355V2.86865H2.51748C1.85005 2.86946 1.21018 3.1363 0.738237 3.61066C0.26629 4.08502 0.000799481 4.72816 0 5.39901V16.5326C0 17.9283 1.12985 19.0629 2.51748 19.0629H15.4825C16.8712 19.0629 18 17.9283 18 16.5326V5.39901C17.9995 4.72826 17.7342 4.08511 17.2624 3.61073C16.7906 3.13634 16.1509 2.86946 15.4835 2.86865ZM2.51748 3.88079H4.46903V4.47998C4.46903 4.74516 4.70064 4.9982 4.97253 4.98605C5.24543 4.97391 5.47603 4.76338 5.47603 4.47998V3.88079H12.525V4.47998C12.525 4.74516 12.7566 4.9982 13.0285 4.98605C13.3014 4.97391 13.532 4.76338 13.532 4.47998V3.88079H15.4825C16.3153 3.88079 16.993 4.56197 16.993 5.39901V7.00224H1.00699V5.39901C1.00699 4.56197 1.6847 3.88079 2.51748 3.88079ZM15.4835 18.0508H2.51748C1.6847 18.0508 1.00699 17.3696 1.00699 16.5326V8.01439H16.993V16.5326C16.993 16.9351 16.834 17.3211 16.551 17.6058C16.2679 17.8905 15.884 18.0505 15.4835 18.0508Z" fill="#282A2E"/>
</g>
</svg>
