<svg width="30" height="30" viewBox="0 0 30 30" fill="none" xmlns="http://www.w3.org/2000/svg">
<g id="nimbus:marketing">
<rect width="30" height="30" rx="4" fill="#ECECEC"/>
<path id="Vector" d="M11.9583 15.0833C12.8976 15.0833 13.7985 14.7102 14.4627 14.046C15.1269 13.3818 15.5 12.481 15.5 11.5417C15.5 10.6024 15.1269 9.70152 14.4627 9.03733C13.7985 8.37314 12.8976 8 11.9583 8C11.019 8 10.1182 8.37314 9.454 9.03733C8.78981 9.70152 8.41667 10.6024 8.41667 11.5417C8.41667 12.481 8.78981 13.3818 9.454 14.046C10.1182 14.7102 11.019 15.0833 11.9583 15.0833ZM11.9583 15.0833C13.3842 15.0833 14.6302 15.6217 15.5163 16.5163M11.9583 15.0833C9.125 15.0833 7 17.2083 7 20.0417V23.5833H11.9583M22.5833 17.9167L20.4583 15.7917L16.2083 20.0417M18.6875 17.5625L20.8125 19.6875M13.375 21.1042C13.3752 21.574 13.562 22.0245 13.8944 22.3566C14.2267 22.6887 14.6774 22.8752 15.1472 22.875C15.6171 22.8748 16.0676 22.688 16.3997 22.3556C16.7318 22.0233 16.9183 21.5726 16.9181 21.1027C16.9179 20.6329 16.7311 20.1824 16.3987 19.8503C16.0663 19.5182 15.6157 19.3317 15.1458 19.3319C14.676 19.3321 14.2255 19.5189 13.8934 19.8513C13.5613 20.1837 13.3748 20.6343 13.375 21.1042Z" stroke="#9024FF" stroke-width="2"/>
</g>
</svg>
