<svg width="30" height="30" viewBox="0 0 30 30" fill="none" xmlns="http://www.w3.org/2000/svg">
<g id="nimbus:marketing">
<rect width="30" height="30" rx="4" fill="#ECECEC"/>
<path id="Vector" d="M22.4911 8.24608C22.2801 8.10956 22.0388 8.02698 21.7884 8.00557C21.538 7.98417 21.2861 8.02461 21.055 8.12333L13.4817 11.106C13.3024 11.179 13.1106 11.2165 12.917 11.2165H8.06862C7.66169 11.2165 7.27144 11.3782 6.9837 11.6659C6.69596 11.9536 6.53431 12.3439 6.53431 12.7508V12.8736H5V16.5559H6.53431V16.7155C6.54392 17.116 6.70981 17.4968 6.99651 17.7767C7.28322 18.0565 7.66799 18.2131 8.06862 18.213L9.90979 22.1162C10.0345 22.3791 10.2307 22.6014 10.4761 22.7578C10.7214 22.9141 11.0059 22.9981 11.2968 23H12.0701C12.4749 22.9968 12.862 22.8337 13.1471 22.5463C13.4322 22.2589 13.5921 21.8705 13.5921 21.4657V18.3602L21.055 21.3429C21.2386 21.416 21.4344 21.4535 21.6319 21.4534C21.9384 21.4485 22.2369 21.3547 22.4911 21.1834C22.693 21.0471 22.8595 20.8646 22.9769 20.6512C23.0943 20.4378 23.1592 20.1994 23.1662 19.9559V9.51035C23.1651 9.26058 23.103 9.01487 22.9854 8.79454C22.8677 8.57422 22.6981 8.38595 22.4911 8.24608ZM12.0578 12.7508V16.7155H8.06862V12.7508H12.0578ZM12.0578 21.4657H11.2845L9.77477 18.213H12.0578V21.4657ZM14.0463 16.8996C13.9006 16.8251 13.7486 16.7635 13.5921 16.7155V12.6649C13.7471 12.6329 13.899 12.5877 14.0463 12.5299L21.6319 9.51035V19.9191L14.0463 16.8996ZM23.203 13.1804V16.249C23.61 16.249 24.0002 16.0874 24.288 15.7996C24.5757 15.5119 24.7374 15.1217 24.7374 14.7147C24.7374 14.3078 24.5757 13.9175 24.288 13.6298C24.0002 13.3421 23.61 13.1804 23.203 13.1804Z" fill="#9024FF"/>
</g>
</svg>
