<svg width="18" height="24" viewBox="0 0 18 24" fill="none" xmlns="http://www.w3.org/2000/svg">
<path id="Vector" d="M8.35714 17.4135H9.64286V10.1454H8.35714V17.4135ZM9 8.11779C9.22457 8.11779 9.41228 8.04193 9.56314 7.89022C9.71486 7.7385 9.79071 7.55079 9.79071 7.32707C9.79071 7.1025 9.71486 6.91436 9.56314 6.76265C9.41228 6.61093 9.22457 6.53507 9 6.53507C8.77543 6.53507 8.58771 6.61093 8.43686 6.76265C8.28514 6.91436 8.20929 7.1025 8.20929 7.32707C8.20929 7.55079 8.28514 7.7385 8.43686 7.89022C8.58771 8.04193 8.77543 8.11779 9 8.11779ZM9 23.4975C6.41743 22.7304 4.27157 21.1656 2.56243 18.8034C0.854143 16.4402 0 13.7784 0 10.8178V3.86465L9 0.502502L18 3.86465V10.8178C18 13.7784 17.1459 16.4398 15.4376 18.8021C13.7284 21.1652 11.5826 22.7304 9 23.4975ZM9 22.1321C11.2286 21.4249 13.0714 20.0106 14.5286 17.8892C15.9857 15.7678 16.7143 13.4106 16.7143 10.8178V4.74279L9 1.87565L1.28571 4.74279V10.8178C1.28571 13.4106 2.01429 15.7678 3.47143 17.8892C4.92857 20.0106 6.77143 21.4249 9 22.1321Z" fill="#282A2E"/>
</svg>
