<svg width="18" height="22" viewBox="0 0 18 22" fill="none" xmlns="http://www.w3.org/2000/svg">
<g id="My activity icon">
<path id="Vector" d="M7.01083 0.693726C7.17987 0.693726 7.34198 0.760875 7.46151 0.880401C7.58103 0.999927 7.64818 1.16204 7.64818 1.33107V3.88047C7.64818 4.0495 7.58103 4.21161 7.46151 4.33114C7.34198 4.45067 7.17987 4.51782 7.01083 4.51782C6.8418 4.51782 6.67969 4.45067 6.56016 4.33114C6.44063 4.21161 6.37348 4.0495 6.37348 3.88047V1.33107C6.37348 1.16204 6.44063 0.999927 6.56016 0.880401C6.67969 0.760875 6.8418 0.693726 7.01083 0.693726ZM2.05226 2.74599C2.11147 2.68663 2.1818 2.63954 2.25923 2.60741C2.33666 2.57528 2.41967 2.55874 2.5035 2.55874C2.58734 2.55874 2.67035 2.57528 2.74778 2.60741C2.82521 2.63954 2.89554 2.68663 2.95475 2.74599L4.75717 4.54968C4.81804 4.60848 4.8666 4.6788 4.9 4.75656C4.9334 4.83432 4.95098 4.91796 4.95172 5.00258C4.95246 5.08721 4.93633 5.17113 4.90428 5.24946C4.87224 5.32779 4.82491 5.39895 4.76507 5.45879C4.70523 5.51864 4.63407 5.56596 4.55574 5.59801C4.47741 5.63005 4.39348 5.64618 4.30886 5.64544C4.22423 5.64471 4.1406 5.62713 4.06284 5.59372C3.98508 5.56032 3.91475 5.51177 3.85596 5.45089L2.05354 3.64847C1.93405 3.52895 1.86693 3.36687 1.86693 3.19787C1.86693 3.02887 1.93405 2.86678 2.05354 2.74726M11.9707 2.74726C12.03 2.80647 12.0771 2.8768 12.1093 2.95423C12.1414 3.03166 12.1579 3.11467 12.1579 3.1985C12.1579 3.28234 12.1414 3.36535 12.1093 3.44278C12.0771 3.52021 12.03 3.59054 11.9707 3.64975L10.1644 5.45089C10.1056 5.51177 10.0353 5.56032 9.95755 5.59372C9.87979 5.62713 9.79616 5.64471 9.71153 5.64544C9.62691 5.64618 9.54298 5.63005 9.46465 5.59801C9.38633 5.56596 9.31516 5.51864 9.25532 5.45879C9.19548 5.39895 9.14816 5.32779 9.11611 5.24946C9.08406 5.17113 9.06794 5.08721 9.06867 5.00258C9.06941 4.91796 9.08699 4.83432 9.12039 4.75656C9.15379 4.6788 9.20235 4.60848 9.26322 4.54968L11.0656 2.74726C11.1852 2.62778 11.3472 2.56065 11.5162 2.56065C11.6853 2.56065 11.8473 2.62778 11.9669 2.74726M0 7.70456C0 7.53552 0.0671491 7.37341 0.186675 7.25388C0.306201 7.13436 0.468313 7.06721 0.637348 7.06721H3.18674C3.35578 7.06721 3.51789 7.13436 3.63742 7.25388C3.75694 7.37341 3.82409 7.53552 3.82409 7.70456C3.82409 7.87359 3.75694 8.0357 3.63742 8.15523C3.51789 8.27476 3.35578 8.34191 3.18674 8.34191H0.637348C0.468313 8.34191 0.306201 8.27476 0.186675 8.15523C0.0671491 8.0357 0 7.87359 0 7.70456ZM8.46399 7.44962C8.27796 7.29467 8.05166 7.19591 7.81155 7.16488C7.57145 7.13385 7.32747 7.17184 7.10817 7.2744C6.88886 7.37697 6.7033 7.53987 6.5732 7.74404C6.44309 7.94821 6.37382 8.18521 6.37348 8.42731V20.0283C6.37348 21.2061 7.83301 21.7543 8.60803 20.8683L11.1906 17.9162C11.3702 17.7113 11.5915 17.5472 11.8397 17.4349C12.0879 17.3226 12.3573 17.2646 12.6297 17.2648H16.7227C17.9146 17.2648 18.4551 15.7734 17.5386 15.0111L8.46399 7.44962ZM7.64818 20.0309V8.42731L16.7227 15.9901H12.6297C12.1753 15.99 11.7262 16.0871 11.3125 16.2749C10.8987 16.4626 10.5299 16.7367 10.2307 17.0787L7.64818 20.0309Z" fill="#282A2E"/>
</g>
</svg>
