<svg width="18" height="18" viewBox="0 0 18 18" fill="none" xmlns="http://www.w3.org/2000/svg">
<path id="Vector" d="M16.4048 10.8309L16.3619 10.4049L16.3491 10.4058L16.3345 10.4084L16.4048 10.8309ZM16.4048 10.8309L16.4476 11.2578L16.4622 11.2561L16.4759 11.2535L16.4048 10.8309ZM12.9418 15.53L13.2135 15.1983L13.2092 15.1957L12.9418 15.53ZM12.9418 15.53L12.67 15.8618L12.6743 15.8652L12.9418 15.53ZM5.0591 15.53L4.78737 15.1992L4.78137 15.2043L4.77451 15.2103L5.0591 15.53ZM5.0591 15.53L5.33082 15.8626L5.33768 15.8566L5.34368 15.8515L5.0591 15.53ZM1.59522 7.16905V6.74046H1.57465L1.55322 6.74218L1.59522 7.16905ZM1.59522 7.16905V7.59765H1.61665L1.63808 7.59508L1.59522 7.16905ZM11.2565 1.55193C11.2437 1.39651 11.2257 1.24156 11.2025 1.08734C11.1829 0.950873 11.1418 0.818372 11.0808 0.694746L10.3188 1.08819C10.3273 1.10534 10.3419 1.13962 10.3565 1.22877C10.3728 1.32306 10.3848 1.44564 10.4045 1.63679L11.2565 1.55193ZM11.4245 2.58312C11.4143 2.57026 11.3834 2.51798 11.35 2.33454C11.3101 2.07482 11.2801 1.81379 11.2582 1.55193L10.4045 1.63679C10.4388 1.98052 10.4671 2.26511 10.5065 2.48626C10.5451 2.70227 10.6051 2.92257 10.7431 3.10343L11.4245 2.58312ZM11.8223 2.7477C11.7474 2.75778 11.6711 2.74787 11.6013 2.71896C11.5314 2.69006 11.4704 2.64319 11.4245 2.58312L10.7422 3.10258C10.8799 3.28308 11.0629 3.42393 11.2726 3.5108C11.4823 3.59768 11.7113 3.62747 11.9363 3.59717L11.8223 2.7477ZM12.6692 2.13653C12.3906 2.3654 12.2003 2.52055 12.0503 2.62427C11.8969 2.73056 11.8377 2.74513 11.8223 2.7477L11.9363 3.59717C12.1609 3.56717 12.3589 3.45402 12.5397 3.32801C12.724 3.19944 12.9443 3.01943 13.2126 2.79999L12.6692 2.13653ZM13.3995 1.65565C13.2623 1.69937 13.1466 1.7688 13.0369 1.8468C12.9306 1.92223 12.8098 2.02167 12.6692 2.13653L13.2126 2.79999C13.3609 2.67827 13.4569 2.60027 13.5341 2.54541C13.5724 2.51454 13.6152 2.48969 13.6609 2.47169L13.3995 1.65565ZM14.3021 1.70022C14.0165 1.57664 13.6958 1.5608 13.3995 1.65565L13.6609 2.47169C13.7595 2.44047 13.8661 2.44595 13.961 2.48712L14.3021 1.70022ZM14.981 2.25225C14.8524 2.12367 14.7418 2.01224 14.6441 1.92652C14.5427 1.83355 14.4273 1.75718 14.3021 1.70022L13.961 2.48712C13.979 2.49483 14.0115 2.51283 14.0801 2.57284C14.1512 2.63455 14.2387 2.72199 14.375 2.85828L14.981 2.25225ZM15.7465 3.01771L14.981 2.25225L14.375 2.85828L15.1404 3.62374L15.7465 3.01771ZM16.2985 3.6966C16.2412 3.57136 16.1646 3.45593 16.0713 3.35459C15.9856 3.25687 15.8742 3.14629 15.7465 3.01771L15.1404 3.62374C15.2767 3.76004 15.3633 3.84747 15.4267 3.91861C15.4867 3.98719 15.5039 4.01976 15.5116 4.03776L16.2985 3.6966ZM16.3431 4.59922C16.4379 4.30287 16.4221 3.98217 16.2985 3.6966L15.5116 4.03776C15.5525 4.13274 15.5577 4.23929 15.5262 4.33778L16.3431 4.59922ZM15.8622 5.32954C15.977 5.18896 16.0765 5.0681 16.1519 4.96181C16.2291 4.85209 16.2993 4.73637 16.3431 4.59922L15.5262 4.33778C15.5084 4.38351 15.4839 4.42629 15.4533 4.46464C15.3717 4.57429 15.2868 4.68149 15.1987 4.78608L15.8622 5.32954ZM15.251 6.17644C15.2536 6.16101 15.2682 6.10186 15.3744 5.94842C15.4782 5.79842 15.6333 5.60812 15.8622 5.32954L15.1987 4.78608C14.9793 5.05438 14.7984 5.27468 14.6707 5.45897C14.5447 5.63898 14.4315 5.83785 14.4015 6.06243L15.251 6.17644ZM15.4156 6.57417C15.3555 6.52828 15.3087 6.46731 15.2797 6.39746C15.2508 6.32761 15.2409 6.25136 15.251 6.17644L14.4015 6.06243C14.3714 6.28727 14.4013 6.51608 14.4881 6.72564C14.575 6.9352 14.7158 7.11805 14.8961 7.25563L15.4156 6.57417ZM16.4468 6.74132C16.0876 6.70532 15.8442 6.68132 15.6642 6.64874C15.4807 6.61531 15.4284 6.58446 15.4156 6.57417L14.8961 7.25563C15.0761 7.39278 15.2964 7.45278 15.5133 7.49221C15.7336 7.53164 16.0173 7.56079 16.3619 7.59508L16.4468 6.74132ZM17.304 6.9179C17.1803 6.85688 17.0478 6.8158 16.9114 6.79618C16.7828 6.77475 16.6268 6.75932 16.4468 6.74132L16.3611 7.59422C16.5531 7.61393 16.6756 7.62593 16.7699 7.64222C16.8184 7.64768 16.8658 7.66039 16.9105 7.67994L17.304 6.9179ZM17.91 7.58736C17.7956 7.29828 17.5803 7.06044 17.304 6.9179L16.9105 7.67994C17.0027 7.72733 17.0745 7.8065 17.1128 7.9028L17.91 7.58736ZM18 8.4574C18 8.27654 18 8.11967 17.9914 7.98938C17.9857 7.85192 17.9582 7.71623 17.91 7.58736L17.1128 7.9028C17.1197 7.9208 17.13 7.95681 17.136 8.04681C17.1426 8.18385 17.1449 8.32107 17.1428 8.45826L18 8.4574ZM18 9.54088V8.4574H17.1428V9.54088H18ZM17.91 10.4101C17.9631 10.2763 17.9829 10.1426 17.9914 10.008C18 9.87861 18 9.72175 18 9.54088H17.1428C17.1428 9.73289 17.1428 9.85633 17.136 9.95147C17.1355 10.0004 17.1277 10.0489 17.1128 10.0955L17.91 10.4101ZM17.304 11.0804C17.5804 10.9376 17.7957 10.6995 17.91 10.4101L17.1128 10.0955C17.0745 10.1918 17.0027 10.271 16.9105 10.3183L17.304 11.0804ZM16.4468 11.257C16.6268 11.239 16.7837 11.2227 16.9114 11.2012C17.0442 11.1798 17.1754 11.1464 17.3031 11.0812L16.9105 10.3183C16.8658 10.3379 16.8184 10.3506 16.7699 10.3561C16.6756 10.3723 16.5531 10.3844 16.3619 10.4041L16.4468 11.257ZM15.4164 11.4241C15.4293 11.4138 15.4816 11.3821 15.665 11.3495C15.845 11.317 16.0885 11.2921 16.4468 11.257L16.3619 10.4041C16.0182 10.4384 15.7336 10.4658 15.5125 10.5061C15.2964 10.5446 15.077 10.6046 14.8961 10.7418L15.4164 11.4241ZM15.251 11.8218C15.241 11.7469 15.2511 11.6705 15.2801 11.6007C15.3092 11.5308 15.3562 11.4699 15.4164 11.4241L14.8961 10.7418C14.7156 10.8794 14.5748 11.0624 14.4879 11.2722C14.401 11.4819 14.3712 11.7109 14.4015 11.9359L15.251 11.8218ZM15.8622 12.6687C15.6926 12.4681 15.5299 12.2617 15.3744 12.0499C15.2682 11.8973 15.2536 11.8373 15.251 11.8218L14.4024 11.9367C14.4324 12.1613 14.5455 12.3584 14.6707 12.5393C14.7993 12.7227 14.9793 12.9439 15.1987 13.2113L15.8622 12.6687ZM16.3431 13.3991C16.2989 13.2686 16.2343 13.146 16.1519 13.0356C16.0592 12.9103 15.9626 12.788 15.8622 12.6687L15.1987 13.2113C15.3204 13.3605 15.3984 13.4556 15.4533 13.5336C15.4838 13.5718 15.5083 13.6142 15.5262 13.6597L16.3431 13.3991ZM16.2985 14.3017C16.4221 14.0161 16.4379 13.6954 16.3431 13.3991L15.5262 13.6597C15.5579 13.7584 15.5527 13.8653 15.5116 13.9605L16.2985 14.3017ZM15.7473 14.9797C15.875 14.852 15.9856 14.7414 16.0713 14.6437C16.1605 14.5417 16.2411 14.4345 16.2985 14.3017L15.5116 13.9605C15.4892 14.0041 15.4603 14.0439 15.4259 14.0788C15.3337 14.1799 15.2385 14.2783 15.1404 14.3737L15.7473 14.9797ZM14.981 15.746L15.7473 14.9797L15.1404 14.3737L14.375 15.14L14.981 15.746ZM14.3021 16.2972C14.4341 16.2398 14.5421 16.1601 14.6441 16.0709C14.7418 15.9852 14.8524 15.8738 14.981 15.7452L14.375 15.14C14.2387 15.2763 14.1512 15.3629 14.0801 15.4254C14.0449 15.4599 14.0048 15.4888 13.961 15.5112L14.3021 16.2972ZM13.3995 16.3426C13.696 16.4372 14.0166 16.4211 14.3021 16.2972L13.961 15.5112C13.866 15.5521 13.7594 15.5572 13.6609 15.5257L13.3995 16.3426ZM12.6692 15.8609C12.8098 15.9758 12.9306 16.0752 13.0369 16.1506C13.1466 16.2286 13.2623 16.2989 13.3995 16.3426L13.6609 15.5257C13.6152 15.508 13.5724 15.4834 13.5341 15.4529C13.4244 15.3709 13.3172 15.2858 13.2126 15.1974L12.6692 15.8609ZM11.8223 15.2506C11.8377 15.2523 11.8977 15.2677 12.0503 15.374C12.2003 15.4777 12.3906 15.6329 12.6692 15.8609L13.2126 15.1974C12.9443 14.9789 12.724 14.798 12.5397 14.6694C12.3597 14.5443 12.1609 14.4311 11.9363 14.4011L11.8223 15.2506ZM11.4245 15.4152C11.4704 15.3551 11.5314 15.3082 11.6013 15.2793C11.6711 15.2504 11.7474 15.2405 11.8223 15.2506L11.9363 14.4011C11.7115 14.3709 11.4828 14.4006 11.2732 14.4873C11.0637 14.574 10.8808 14.7146 10.7431 14.8949L11.4245 15.4152ZM11.2574 16.4464C11.2934 16.0872 11.3174 15.8438 11.35 15.6637C11.3834 15.4803 11.4143 15.428 11.4245 15.4152L10.7431 14.8949C10.6059 15.0749 10.5459 15.296 10.5065 15.512C10.4671 15.7323 10.4379 16.016 10.4036 16.3606L11.2574 16.4464ZM11.0808 17.3035C11.1468 17.175 11.1794 17.0438 11.2017 16.9109C11.224 16.7824 11.2394 16.6264 11.2574 16.4464L10.4036 16.3606C10.3917 16.4974 10.3766 16.6337 10.3565 16.7695C10.351 16.818 10.3383 16.8654 10.3188 16.9101L11.0808 17.3035ZM10.4114 17.9096C10.7004 17.7951 10.9383 17.5798 11.0808 17.3035L10.3188 16.9101C10.2714 17.0023 10.1922 17.0741 10.0959 17.1124L10.4114 17.9096ZM9.54131 17.9996C9.72218 17.9996 9.87904 17.9996 10.0093 17.991C10.1431 17.9824 10.2776 17.9627 10.4114 17.9096L10.0959 17.1124C10.0493 17.1273 10.0008 17.1351 9.9519 17.1355C9.85761 17.1424 9.73332 17.1424 9.54045 17.1424L9.54131 17.9996ZM8.45783 17.9996H9.54131L9.54045 17.1424H8.45783V17.9996ZM7.58779 17.9096C7.72237 17.9627 7.85609 17.9824 7.99067 17.991C8.1201 17.9996 8.27697 17.9996 8.45783 17.9996V17.1424C8.26582 17.1424 8.14239 17.1424 8.04724 17.1355C7.99835 17.1351 7.9498 17.1273 7.90323 17.1124L7.58779 17.9096ZM6.91833 17.3035C7.06087 17.5798 7.29871 17.7951 7.58779 17.9096L7.90323 17.1124C7.80693 17.0741 7.72776 17.0023 7.68037 16.9101L6.91833 17.3035ZM6.74175 16.4464C6.75975 16.6264 6.77604 16.7832 6.79661 16.9109C6.8189 17.0438 6.85233 17.175 6.91833 17.3035L7.68037 16.9101C7.66082 16.8654 7.64811 16.818 7.64265 16.7695C7.62257 16.634 7.60656 16.4979 7.59465 16.3615L6.74175 16.4464ZM6.5746 15.4152C6.58488 15.428 6.61574 15.4803 6.64917 15.6637C6.68175 15.8438 6.70575 16.0881 6.74175 16.4464L7.59465 16.3615C7.56036 16.0178 7.53207 15.7332 7.49264 15.512C7.45407 15.296 7.39407 15.0757 7.25606 14.8949L6.5746 15.4152ZM6.17687 15.2506C6.25179 15.2405 6.32804 15.2504 6.39789 15.2793C6.46774 15.3082 6.52871 15.3551 6.5746 15.4152L7.25606 14.8949C7.11848 14.7145 6.93563 14.5746 6.72607 14.4877C6.51651 14.4008 6.2877 14.371 6.06286 14.4011L6.17687 15.2506ZM5.32997 15.8618C5.60855 15.6329 5.79885 15.4777 5.94885 15.374C6.10229 15.2677 6.16144 15.2523 6.17687 15.2506L6.06286 14.4011C5.83828 14.4311 5.64027 14.5443 5.4594 14.6703C5.27511 14.798 5.05481 14.9789 4.78651 15.1983L5.32997 15.8618ZM4.59965 16.3426C4.7368 16.2989 4.85252 16.2295 4.96224 16.1515C5.06853 16.0761 5.18939 15.9766 5.32997 15.8618L4.78651 15.1983C4.68191 15.2863 4.57472 15.3712 4.46507 15.4529C4.42673 15.4835 4.38395 15.508 4.33821 15.5257L4.59965 16.3426ZM3.69703 16.2989C3.9826 16.4225 4.30329 16.4375 4.59965 16.3426L4.33821 15.5257C4.23972 15.5572 4.13316 15.5521 4.03819 15.5112L3.69703 16.2989ZM3.01814 15.746C3.14672 15.8746 3.2573 15.986 3.35502 16.0718C3.45616 16.1601 3.56503 16.2415 3.69703 16.2989L4.03819 15.5112C3.99435 15.4888 3.95417 15.4599 3.91904 15.4254C3.81796 15.3332 3.71962 15.238 3.62417 15.14L3.01814 15.746ZM2.25268 14.9806L3.01814 15.746L3.62417 15.14L2.85871 14.3745L2.25268 14.9806ZM1.70065 14.3017C1.75808 14.4337 1.83866 14.5417 1.92781 14.6437C2.01352 14.7414 2.12496 14.852 2.25268 14.9806L2.85871 14.3745C2.76038 14.2791 2.6649 14.1808 2.57241 14.0797C2.53797 14.0445 2.50907 14.0043 2.48669 13.9605L1.70065 14.3017ZM1.65608 13.3991C1.56123 13.6954 1.57707 14.0161 1.70065 14.3017L2.48669 13.9605C2.44552 13.8657 2.4409 13.7591 2.47212 13.6605L1.65608 13.3991ZM2.13696 12.6687C2.0221 12.8093 1.92266 12.9302 1.84723 13.0365C1.76488 13.1466 1.70037 13.2689 1.65608 13.3991L2.47212 13.6605C2.49012 13.6147 2.51497 13.5719 2.54584 13.5336C2.60069 13.4565 2.6787 13.3605 2.80042 13.2122L2.13696 12.6687ZM2.74813 11.8218C2.74556 11.8373 2.73099 11.8964 2.6247 12.0499C2.52012 12.1999 2.36583 12.3902 2.13696 12.6687L2.80042 13.2122C3.01986 12.9439 3.20072 12.7236 3.32844 12.5393C3.45445 12.3593 3.5676 12.1604 3.5976 11.9359L2.74813 11.8218ZM2.58355 11.4241C2.64362 11.47 2.69049 11.531 2.71939 11.6008C2.7483 11.6707 2.75821 11.7469 2.74813 11.8218L3.5976 11.9359C3.62775 11.711 3.59787 11.4822 3.511 11.2726C3.42414 11.0631 3.28338 10.8802 3.103 10.7427L2.58355 11.4241ZM1.55236 11.2578C1.91152 11.293 2.15496 11.317 2.33497 11.3495C2.51841 11.383 2.57069 11.4138 2.58355 11.4241L3.103 10.7418C2.923 10.6046 2.7027 10.5446 2.48583 10.5061C2.26554 10.4666 1.98181 10.4375 1.63722 10.4032L1.55236 11.2578ZM0.695176 11.0804C0.823754 11.1464 0.954903 11.179 1.08777 11.2012C1.21634 11.2235 1.37149 11.2398 1.55236 11.2578L1.63808 10.4041C1.50133 10.3922 1.36498 10.3762 1.2292 10.3561C1.18072 10.3506 1.13333 10.3379 1.08862 10.3183L0.695176 11.0804ZM0.0891471 10.4101C0.203399 10.6995 0.418716 10.9376 0.695176 11.0804L1.08862 10.3183C0.996466 10.271 0.924599 10.1918 0.886328 10.0955L0.0891471 10.4101ZM0 9.5426C0 9.72346 -7.98314e-09 9.88033 0.00857183 10.0106C0.0141194 10.1478 0.0416119 10.2833 0.0900043 10.4118L0.887185 10.0972C0.872283 10.0506 0.864481 10.0021 0.864041 9.95319C0.857671 9.81614 0.855384 9.67893 0.857184 9.54174L0 9.5426ZM0 8.45912V9.5426H0.857184V8.45912H0ZM0.0900043 7.58907C0.0417991 7.71824 0.0143157 7.85421 0.00857183 7.99195C-7.98314e-09 8.12139 0 8.27825 0 8.45912H0.857184C0.857184 8.26711 0.857184 8.14367 0.864041 8.04853C0.864455 7.99963 0.872258 7.95108 0.887185 7.90452L0.0900043 7.58907ZM0.696033 6.91961C0.419728 7.06216 0.20443 7.29999 0.0900043 7.58907L0.887185 7.90452C0.925456 7.80822 0.997323 7.72904 1.08948 7.68165L0.696033 6.91961ZM1.55322 6.74218C1.37321 6.76018 1.21634 6.77732 1.08862 6.79789C0.95216 6.81751 0.819659 6.85859 0.696033 6.91961L1.08948 7.68165C1.10662 7.67308 1.14091 7.65851 1.23006 7.64393C1.32435 7.62765 1.44693 7.61565 1.63808 7.59593L1.55322 6.74218ZM2.58441 6.57588C2.57155 6.58617 2.51926 6.61703 2.33583 6.65046C2.15582 6.68303 1.91238 6.70618 1.55322 6.74218L1.63808 7.59593C1.98181 7.56165 2.26725 7.53336 2.48755 7.49393C2.70441 7.45535 2.92471 7.39535 3.10472 7.25734L2.58441 6.57588ZM2.74899 6.17815C2.75907 6.25307 2.74915 6.32932 2.72025 6.39918C2.69135 6.46903 2.64448 6.52999 2.58441 6.57588L3.10472 7.25734C3.28494 7.11967 3.42553 6.93678 3.51224 6.72722C3.59896 6.51767 3.6287 6.28805 3.59846 6.06329L2.74899 6.17815ZM2.13782 5.3304C2.36668 5.60984 2.52183 5.80013 2.62641 5.95014C2.7327 6.10358 2.74642 6.16272 2.74899 6.17815L3.59846 6.06329C3.56846 5.83871 3.45531 5.64155 3.3293 5.46069C3.20158 5.27639 3.02072 5.0561 2.80128 4.7878L2.13782 5.3304ZM1.65694 4.60008C1.6998 4.73723 1.77008 4.8538 1.84809 4.96352C1.92352 5.06895 2.02295 5.19067 2.13782 5.3304L2.80128 4.7878C2.71324 4.68291 2.62834 4.57543 2.54669 4.4655C2.51591 4.42745 2.49105 4.38497 2.47298 4.33949L1.65694 4.60008ZM1.70151 3.69832C1.57814 3.98363 1.5623 4.30398 1.65694 4.60008L2.47298 4.33949C2.44175 4.2409 2.44723 4.13435 2.4884 4.03948L1.70151 3.69832ZM2.25354 3.01943C2.12496 3.14715 2.01352 3.25773 1.92781 3.3563C1.83485 3.45769 1.75848 3.57312 1.70151 3.69832L2.4884 4.03948C2.51084 3.99595 2.53974 3.95521 2.57412 3.92033C2.66595 3.81888 2.76115 3.72053 2.85956 3.62546L2.25354 3.01943ZM3.019 2.25311L2.25354 3.01943L2.85956 3.62546L3.62503 2.85914L3.019 2.25311ZM3.69789 1.70194C3.57272 1.75897 3.45731 1.83533 3.35587 1.92823C3.25815 2.01395 3.14672 2.12453 3.019 2.25311L3.62503 2.85914C3.76132 2.7237 3.84875 2.63627 3.9199 2.57369C3.98848 2.51369 4.02105 2.49655 4.03905 2.48797L3.69789 1.70194ZM4.6005 1.65651C4.30405 1.56193 3.98335 1.57807 3.69789 1.70194L4.03905 2.48797C4.13392 2.4468 4.24047 2.44218 4.33906 2.4734L4.6005 1.65651ZM5.33082 2.13824C5.19025 2.02338 5.06938 1.92395 4.96309 1.84852C4.85309 1.76583 4.73072 1.70102 4.6005 1.65651L4.33906 2.4734C4.38479 2.49114 4.42757 2.5157 4.46593 2.54626C4.54307 2.60198 4.63908 2.67998 4.78823 2.8017L5.33082 2.13824ZM6.17772 2.74942C6.16229 2.74684 6.10315 2.73227 5.94971 2.62598C5.73786 2.47028 5.53144 2.30818 5.33082 2.13824L4.78823 2.8017C5.05567 3.02114 5.27682 3.20201 5.46026 3.32973C5.64027 3.45488 5.83914 3.56803 6.06372 3.59888L6.17772 2.74942ZM6.57546 2.58398C6.52966 2.64421 6.46874 2.69124 6.39888 2.7203C6.32903 2.74935 6.25272 2.7594 6.17772 2.74942L6.06372 3.59888C6.28861 3.62928 6.51755 3.59876 6.72727 3.51204C6.93699 3.42532 7.12002 3.28464 7.25777 3.10429L6.57546 2.58398ZM6.74261 1.55364C6.7066 1.91195 6.6826 2.15624 6.65003 2.3354C6.6166 2.51883 6.58574 2.57112 6.57546 2.58398L7.25777 3.10429C7.39492 2.92428 7.45493 2.70398 7.4935 2.48712C7.53293 2.26682 7.56207 1.98309 7.59636 1.63851L6.74261 1.55364ZM6.91919 0.69646C6.85318 0.825038 6.81975 0.956187 6.79747 1.08905C6.77604 1.21763 6.76061 1.37278 6.74261 1.55364L7.5955 1.63936C7.60739 1.50262 7.6234 1.36627 7.64351 1.23049C7.64891 1.18199 7.66163 1.1346 7.68122 1.08991L6.91919 0.69646ZM7.5895 0.0904315C7.29996 0.204895 7.06178 0.419678 6.91919 0.69646L7.68122 1.08991C7.72861 0.99775 7.80779 0.925883 7.90409 0.887612L7.5895 0.0904315ZM8.45869 0.000427246C8.27782 0.000427246 8.12096 0.000427238 7.99067 0.00899908C7.85345 0.0145466 7.71802 0.042039 7.5895 0.0904315L7.90409 0.887612C7.95065 0.872685 7.9992 0.864882 8.0481 0.864468C8.14239 0.857611 8.26668 0.857611 8.45955 0.857611L8.45869 0.000427246ZM9.54217 0.000427246H8.45869V0.857611H9.54217V0.000427246ZM10.4122 0.0904315C10.2831 0.0422123 10.1471 0.0147286 10.0093 0.00899908C9.8799 0.000427238 9.72303 0.000427246 9.54217 0.000427246V0.857611C9.73418 0.857611 9.85761 0.857611 9.95276 0.864468C10.0016 0.86516 10.0501 0.872956 10.0968 0.887612L10.4122 0.0904315ZM11.0817 0.69646C10.9389 0.420001 10.7008 0.204683 10.4114 0.0904315L10.0968 0.887612C10.1931 0.925883 10.2722 0.99775 10.3196 1.08991L11.0817 0.69646ZM12.0006 9C12.0006 9.79569 11.6845 10.5588 11.1218 11.1214C10.5592 11.6841 9.79612 12.0001 9.00043 12.0001V12.8573C10.0235 12.8573 11.0046 12.4509 11.728 11.7275C12.4514 11.0042 12.8578 10.023 12.8578 9H12.0006ZM9.00043 5.99986C9.79612 5.99986 10.5592 6.31594 11.1218 6.87858C11.6845 7.44121 12.0006 8.20431 12.0006 9H12.8578C12.8578 7.97697 12.4514 6.99585 11.728 6.27246C11.0046 5.54907 10.0235 5.14267 9.00043 5.14267V5.99986ZM6.00029 9C6.00029 8.20431 6.31637 7.44121 6.87901 6.87858C7.44164 6.31594 8.20474 5.99986 9.00043 5.99986V5.14267C7.9774 5.14267 6.99628 5.54907 6.27289 6.27246C5.5495 6.99585 5.1431 7.97697 5.1431 9H6.00029ZM9.00043 12.0001C8.20474 12.0001 7.44164 11.6841 6.87901 11.1214C6.31637 10.5588 6.00029 9.79569 6.00029 9H5.1431C5.1431 10.023 5.5495 11.0042 6.27289 11.7275C6.99628 12.4509 7.9774 12.8573 9.00043 12.8573V12.0001Z" fill="#282A2E"/>
</svg>
