<svg width="23" height="31" viewBox="0 0 23 31" fill="none" xmlns="http://www.w3.org/2000/svg">
<g id="Frame 399">
<g id="Mask group" opacity="0.9">
<mask id="mask0_5916_14154" style="mask-type:alpha" maskUnits="userSpaceOnUse" x="0" y="-1" width="23" height="24">
<g id="Group 9">
<rect id="Rectangle 14" x="3.78125" y="15.9386" width="5.26084" height="17.0433" transform="rotate(-135 3.78125 15.9386)" fill="#D9D9D9"/>
<rect id="Rectangle 15" x="8.92188" y="3.36005" width="4.75213" height="14.0882" transform="rotate(-45 8.92188 3.36005)" fill="#D9D9D9"/>
<rect id="Rectangle 16" x="0.0859375" y="12.1985" width="4.75213" height="14.0882" transform="rotate(-45 0.0859375 12.1985)" fill="#D9D9D9"/>
</g>
</mask>
<g mask="url(#mask0_5916_14154)">
<ellipse id="Ellipse 21" cx="9.19002" cy="13.1609" rx="16.4283" ry="17.5812" fill="url(#paint0_linear_5916_14154)"/>
</g>
</g>
<g id="Mask group_2" opacity="0.9">
<mask id="mask1_5916_14154" style="mask-type:alpha" maskUnits="userSpaceOnUse" x="0" y="8" width="23" height="24">
<g id="Group 10">
<rect id="Rectangle 14_2" x="18.5273" y="15.0613" width="5.26084" height="17.0433" transform="rotate(45 18.5273 15.0613)" fill="#D9D9D9"/>
<rect id="Rectangle 15_2" x="13.3867" y="27.6399" width="4.75213" height="14.0882" transform="rotate(135 13.3867 27.6399)" fill="#D9D9D9"/>
<rect id="Rectangle 16_2" x="22.2266" y="18.8005" width="4.75213" height="14.0882" transform="rotate(135 22.2266 18.8005)" fill="#D9D9D9"/>
</g>
</mask>
<g mask="url(#mask1_5916_14154)">
<ellipse id="Ellipse 23" cx="12.1688" cy="22.6732" rx="13.4501" ry="15.3715" fill="url(#paint1_linear_5916_14154)"/>
</g>
</g>
</g>
<defs>
<linearGradient id="paint0_linear_5916_14154" x1="-7.23828" y1="17.2496" x2="25.6185" y2="17.2601" gradientUnits="userSpaceOnUse">
<stop stop-color="#CF4CAA"/>
<stop offset="1" stop-color="#A250E4"/>
</linearGradient>
<linearGradient id="paint1_linear_5916_14154" x1="-1.28125" y1="26.248" x2="25.619" y2="26.2561" gradientUnits="userSpaceOnUse">
<stop stop-color="#CF4CAA"/>
<stop offset="1" stop-color="#A250E4"/>
</linearGradient>
</defs>
</svg>
